<?xml version="1.0" standalone="no"?>
<!DOCTYPE svg PUBLIC "-//W3C//DTD SVG 1.1//EN" "http://www.w3.org/Graphics/SVG/1.1/DTD/svg11.dtd" >
<svg>
<metadata>
Created by FontForge 20090622 at Sun Jun 28 13:48:04 2015
 By deploy user
Copyright (c)1993 by Fantazia Concepts
</metadata>
<defs>
<font id="UniversLightNormalLeftis" horiz-adv-x="1128" >
  <font-face 
    font-family="Univers-Light-Normal Leftis"
    font-weight="500"
    font-stretch="normal"
    units-per-em="2048"
    panose-1="0 11 6 0 0 0 0 0 0 0"
    ascent="1638"
    descent="-410"
    x-height="1016"
    cap-height="1483"
    bbox="-442 -408 2056 1966"
    underline-thickness="50"
    underline-position="-55"
    unicode-range="U+0020-U+F002"
  />
<missing-glyph horiz-adv-x="1536" 
d="M256 0v1280h1024v-1280h-1024zM1247 33v1214h-958v-1214h958z" />
    <glyph glyph-name=".notdef" horiz-adv-x="1536" 
d="M256 0v1280h1024v-1280h-1024zM1247 33v1214h-958v-1214h958z" />
    <glyph glyph-name=".null" horiz-adv-x="0" 
 />
    <glyph glyph-name="nonmarkingreturn" horiz-adv-x="565" 
 />
    <glyph glyph-name="space" unicode=" " horiz-adv-x="565" 
 />
    <glyph glyph-name="exclam" unicode="!" horiz-adv-x="791" 
d="M555 193h176l86 -193h-176zM514 354l-541 1145h177l477 -1145h-113z" />
    <glyph glyph-name="quotedbl" unicode="&#x22;" horiz-adv-x="565" 
d="M8 1468h129l209 -469h-129zM362 1468l209 -469h-129l-209 469h129z" />
    <glyph glyph-name="numbersign" unicode="#" 
d="M256 854h-225l-58 129h242l-129 436h129l129 -436h274l-129 436h129l130 -436h210l58 -129h-228l93 -274h209l57 -129h-225l135 -451h-129l-135 451h-275l135 -451h-129l-135 451h-225l-58 129h242zM659 854h-274l92 -274h275z" />
    <glyph glyph-name="dollar" unicode="$" 
d="M545 645q-37 8 -82 23q-47 12 -96 30q-113 41 -226 119q-112 78 -180 230q-8 20 -14 40q-8 21 -13 41q-8 37 -8 72q0 74 37 141q53 99 223 109l-45 98h113l43 -96q213 -14 360 -121q146 -106 209 -252l-145 2q-8 17 -21 37q-14 21 -30 41q-49 60 -131 111t-183 51
l250 -563q236 -62 385 -140q150 -79 226 -249q40 -93 40 -164q0 -68 -36 -117q-78 -102 -215 -119h-23q-12 -2 -25 -2l43 -96h-112l-43 96q-174 13 -348 105q-176 92 -267 297l160 2q45 -99 137 -172q93 -76 254 -88zM672 612l223 -499h16q9 -2 17 0q14 2 30 6q76 20 115 86
q21 31 21 71q0 41 -23 93q-35 75 -102 120q-72 46 -144 72q-47 17 -86 29q-39 10 -67 20v2zM242 1323q-113 -14 -148 -88q-16 -35 -16 -74q0 -47 22 -98q50 -109 154 -174q102 -66 227 -101z" />
    <glyph glyph-name="percent" unicode="%" horiz-adv-x="2048" 
d="M1303 354q-43 99 -43 181q0 47 14 90q39 114 194 114q158 0 297 -121q136 -120 199 -266l2 -2q0 -2 2 -4q47 -110 47 -205q0 -28 -4 -55q-18 -119 -199 -119q-180 0 -311 119q-129 117 -194 260q-2 2 -2 4l-2 2v2zM1851 354q-6 15 -16 31l-18 35q-56 84 -140 153
q-86 70 -166 70q-96 0 -114 -84q-4 -22 -4 -47q0 -70 39 -160q55 -121 149 -205q94 -86 191 -86q96 0 114 86q6 23 6 48q0 69 -41 157v2zM1008 1452h129l-160 -1452h-129zM74 1049q-54 120 -54 198q0 39 13 68q41 84 123 108q22 4 43 9q20 2 43 2q24 0 53 -4q31 -7 63 -17
q101 -33 210.5 -117t170.5 -221q2 -4 4 -6q0 -4 2 -8q3 -4 5 -6q2 -4 2 -8q45 -117 45 -199q0 -53 -19 -90q-45 -99 -190 -99q-146 0 -287 99q-141 96 -227 289v2zM623 1049q-60 135 -144 202q-84 68 -155 82q-9 2 -21 4h-18q-101 0 -117 -69q-6 -27 -6 -54q0 -47 16 -100
l12 -35q7 -16 13 -32q8 -17 18 -33q6 -17 19 -35q51 -84 135 -154q80 -69 170 -69q96 0 114 59q9 29 9 59q0 35 -11 72q-4 27 -14 52.5t-20 48.5v2z" />
    <glyph glyph-name="ampersand" unicode="&#x26;" horiz-adv-x="1468" 
d="M422 887q-82 59 -141 108q-62 49 -107 97q-33 34 -57 71q-25 35 -43 76q-27 59 -27 111q0 43 19 82q38 81 206 81q134 0 267 -59q131 -61 196 -182v-4q2 -4 6 -6q2 -5 2 -7q2 -2 2 -6q25 -53 25 -104q0 -49 -22 -96q-43 -101 -123 -181l635 -448q2 14 2 29q0 38 -9 83
q-12 64 -28 127q-17 54 -35 105q-19 49 -39 94q-12 31 -25 60q-14 26 -28 47l159 2q23 -52 43 -103q21 -53 37 -104q43 -131 64 -250q10 -64 10 -113q0 -45 -8 -78l430 -319h-193l-264 193q-59 -109 -151 -158q-88 -51 -221 -51q-33 0 -68 4q-35 2 -70 6q-168 24 -340 121
q-174 96 -258 286q-39 84 -39 152q0 37 13 68q30 86 86 151q24 31 51 59q24 27 45 54zM1237 291l-690 500q-12 -21 -29 -41q-14 -21 -31 -43q-43 -62 -69 -136q-10 -30 -10 -61q0 -47 22 -100q8 -19 21 -37q10 -19 24 -37q82 -111 207 -166q127 -57 248 -59q18 0 39 2
q18 0 35 4q81 12 145 55q61 43 88 117v2zM500 967q26 22 45 49q18 24 28 51q21 49 23 96q0 47 -18 86q-15 33 -39 60q-29 26 -66 43q-43 20 -82 30q-39 11 -67 11q-43 0 -70 -19q-29 -18 -41 -53q-4 -8 -4 -18q0 -7 2 -15q2 -18 12 -41q13 -26 33 -57q23 -31 51 -62
q39 -45 90 -88q49 -43 103 -75v2z" />
    <glyph glyph-name="quotesingle" unicode="'" horiz-adv-x="565" 
d="M162 1483h178l31 -434h-113z" />
    <glyph glyph-name="parenleft" unicode="(" horiz-adv-x="565" 
d="M-18 1483h112q4 -60 10 -117l15 -117q26 -166 74 -323q43 -158 98 -283q69 -156 205 -369q135 -215 344 -467h-113q-31 35 -61 74l-68 78q-61 72 -123 154l-125 163l-127 191q-57 94 -94 176q-41 94 -68 184q-26 91 -45 179q-18 112 -24 229q-8 117 -10 246v2z" />
    <glyph glyph-name="parenright" unicode=")" horiz-adv-x="565" 
d="M-293 1483h98l218 -248q96 -117 174 -229q63 -88 114 -179q51 -90 92 -184q43 -94 72 -184t47 -178q21 -113 31 -228.5t12 -245.5h-112l-21 213q-12 101 -33 199q-20 100 -55 205q-33 102 -86 219q-51 117 -113 221q-59 103 -129 203q-67 98 -145 201l-164 213v2z" />
    <glyph glyph-name="asterisk" unicode="*" 
d="M459 1178l-285 241l102 64l244 -258l15 258l155 -64l-69 -241l282 16l58 -129l-297 16l286 -243l-94 -80l-258 291v-291l-164 80l68 243l-285 -16l-57 129z" />
    <glyph glyph-name="plus" unicode="+" horiz-adv-x="1339" 
d="M588 580l-209 469h129l209 -469h452l58 -129h-453l201 -451h-129l-201 451h-450l-58 129h451z" />
    <glyph glyph-name="comma" unicode="," horiz-adv-x="565" 
d="M113 193h178l33 -435h-113z" />
    <glyph glyph-name="hyphen" unicode="-" horiz-adv-x="565" 
d="M45 483l-57 129h532l58 -129h-533z" />
    <glyph glyph-name="period" unicode="." horiz-adv-x="565" 
d="M150 193h178l86 -193h-178z" />
    <glyph glyph-name="slash" unicode="/" horiz-adv-x="565" 
d="M88 1516h145l244 -1709h-145z" />
    <glyph glyph-name="zero" unicode="0" 
d="M78 774q-23 49 -43.5 104.5t-34.5 110.5q-31 113 -31 213q0 66 13 125q34 154 249 154q252 0 432.5 -176.5t294.5 -386.5l41 -82q21 -41 39 -80q148 -332 148 -541v-20q-8 -211 -287 -211q-270 0 -457 209q-184 208 -309 462q-14 29 -27 60q-16 28 -28 57v2zM874 758
q-161 342 -294 459q-138 116 -240 131q-12 2 -27 4h-24q-170 0 -176 -144v-16q0 -143 110 -420l25 -53q12 -29 26 -55q99 -209 238 -381q137 -172 330 -172q168 0 174 159v23q0 151 -103 383q-6 12 -12 26q-4 13 -10 27q-4 6 -8 13.5t-6 13.5z" />
    <glyph glyph-name="one" unicode="1" 
d="M514 807l-215 483q0 -6 -2 -8l-4 -8q-25 -55 -80 -109q-57 -53 -145 -86l-58 131q76 45 140 107q61 59 77 133l144 2l647 -1452h-146z" />
    <glyph glyph-name="two" unicode="2" 
d="M420 0l-58 129q33 37 86.5 123t106.5 188q10 23 22.5 44.5t22.5 43.5q49 105 86 201q35 96 35 156q-2 53 -10 98q-9 43 -27 82q-45 102 -127 156q-86 53 -166 71q-26 6 -51 11q-27 2 -49 2q-23 0 -45.5 -5.5t-44.5 -15.5q-60 -29 -90 -92q-13 -27 -13 -59q0 -46 25 -103
l-146 2q-2 4 -6 10q-2 7 -4 13q-39 82 -39 149q0 76 47 135q88 111 252 111q185 0 318 -76q135 -76 213 -166q30 -34 50.5 -67t33.5 -62q22 -55 30 -110q9 -56 9 -113q-4 -119 -45 -233.5t-97 -214.5q-47 -86 -96 -158q-49 -74 -86 -123l725 2l57 -129h-919z" />
    <glyph glyph-name="three" unicode="3" 
d="M399 823q25 -6 50 -8q24 -4 45 -4q133 0 180 78q26 41 26 88q0 39 -18 80q0 2 -2 4v2q-43 94 -119 148.5t-149 80.5q-47 17 -88 23t-64 6q-113 0 -156 -51t-43 -113q2 -24 9 -49q4 -25 14 -45l-164 2q-39 88 -39 154q0 53 25 92q55 86 153 119q35 10 72 16q37 4 72 4
q188 0 375 -107q188 -108 253 -258q0 -2 3 -4q2 -4 2 -6q2 -4 4 -6q0 -2 2 -6q12 -27 20 -55q10 -31 12 -62q3 -12 3 -24q0 -58 -29 -105q-33 -61 -154 -78q131 -30 224 -90q92 -59 149 -125q33 -37 57 -71q23 -37 35 -68l2 -2q0 -2 2 -4q27 -80 27 -152q0 -69 -25 -131
q-51 -129 -303 -129q-241 0 -407 121q-168 119 -234 268q-4 6 -8 15q-2 6 -6 14l145 2q72 -139 171.5 -203.5t189.5 -81.5q20 -4 39 -6q20 -2 39 -2q157 0 210 80q27 37 27 88q0 53 -31 123q-71 137 -178 209q-110 72 -258 72h-43q-22 -2 -45 -7z" />
    <glyph glyph-name="four" unicode="4" 
d="M866 322h-661l-58 129l197 968h176l432 -968h228l57 -129h-227l143 -322h-143zM809 451l-352 790l-133 -790h485z" />
    <glyph glyph-name="five" unicode="5" 
d="M-147 1419h788l59 -129h-659l205 -499q22 57 75.5 100t149.5 43q195 0 383 -133t285 -352q57 -130 57 -228q0 -67 -27 -121q-65 -133 -282 -133q-193 0 -357 94q-168 95 -260 275l162 2q8 -21 20.5 -41.5t28.5 -40.5q47 -59 135 -111q89 -51 215 -51q146 0 191 94
q18 35 18 82q0 74 -47 179q-69 157 -200 258q-131 98 -265 98q-96 0 -153 -60q-43 -43 -43 -108q0 -27 8 -59l-145 2z" />
    <glyph glyph-name="six" unicode="6" 
d="M231 694q0 76 33 121q31 45 78 68q41 20 84 28q45 7 78 7q194 0 381 -130q186 -129 272 -323q66 -146 66 -256q0 -55 -17 -100q-45 -142 -311 -142q-240 0 -397 135q-162 136 -262 297q-52 84 -91 166l-65 142q-133 303 -133 469q0 73 24 120q86 154 279 154
q221 0 373 -100q151 -103 223 -226q4 -10 10 -20q6 -12 10 -25l-161 2q-60 107 -160.5 173.5t-220.5 66.5q-23 0 -45.5 -4t-47.5 -12q-86 -37 -108 -175q-4 -20 -4 -45q0 -139 114 -393zM993 467q-6 14 -16 33q-8 16 -19 35q-63 94 -167 174q-107 79 -230 79
q-155 0 -203 -96q-20 -43 -20 -94q0 -68 35 -149q69 -156 192 -254q121 -101 289 -101q137 0 182 90q19 37 19 82q0 70 -41 160q0 4 -4 10q-2 4 -4 10q-5 5 -7 11l-4 8z" />
    <glyph glyph-name="seven" unicode="7" 
d="M-221 1419h919l60 -129l24 -1290h-159l-27 1290h-758z" />
    <glyph glyph-name="eight" unicode="8" 
d="M352 758q-119 22 -229 106q-113 82 -172 215q-43 97 -43 168q0 74 45 123q88 96 293 96q207 0 381 -96t260 -291q33 -75 33 -135q0 -45 -19 -80q-47 -84 -143 -108q137 -37 262 -125q123 -88 192 -246q41 -94 41 -170q0 -72 -34 -129q-74 -119 -306 -119q-229 0 -405 113
q-178 113 -264 305q-35 80 -35 152q0 36 8 71q25 101 137 148zM1067 387q-8 19 -20 41q-15 23 -31 45q-62 82 -168 152q-105 67 -256 67q-152 0 -199 -67q-35 -54 -35 -113q0 -18 4 -39q5 -22 13 -45q6 -22 14 -43q55 -121 184 -205q129 -86 285 -86q131 0 189 70
q49 57 49 125q0 14 -2 28q-4 13 -7 25q-4 10 -8 23q-2 2 -4 6v4q-4 2 -6 6q0 2 -2 4v2zM741 1081q-53 121 -161.5 184.5t-210.5 80.5q-19 4 -37 6h-35q-18 0 -33 -2l-37 -4q-86 -17 -135 -80q-24 -31 -24 -76q0 -47 28 -111q56 -121 168 -188q113 -70 268 -70q158 0 209 76
q25 37 25 82t-25 100v2z" />
    <glyph glyph-name="nine" unicode="9" 
d="M887 758q-6 -90 -62 -133q-55 -43 -131 -56q-16 -4 -37 -4q-18 -2 -36 -2q-220 0 -396 133t-258 314q-2 4 -6 10v4q-2 2 0 4q-2 4 -6 10q-2 4 -4 9q-35 90 -35 165q0 86 45 150q84 119 266 119q236 0 398 -127q159 -129 262 -285q51 -82 90 -160t65 -137q7 -14 13 -27.5
l12 -27.5q121 -271 121 -451q0 -53 -10 -98q-45 -201 -277 -201q-242 0 -393 109q-156 108 -232 276l146 2q59 -133 172 -188q111 -55 244 -55q145 0 176 147q4 25 4 55q0 150 -129 443zM756 1016q-8 18 -21 43l-30 45q-68 92 -179 170q-110 78 -227 78q-156 0 -199 -88
q-18 -37 -18 -82q0 -66 39 -152q69 -156 176 -246q109 -92 266 -92q133 0 197 84q33 41 33 98q0 60 -35 140z" />
    <glyph glyph-name="colon" unicode=":" horiz-adv-x="565" 
d="M340 193h178l86 -193h-178zM-41 1049h178l86 -195h-178z" />
    <glyph glyph-name="semicolon" unicode=";" horiz-adv-x="565" 
d="M322 178h178l32 -436h-112zM-82 1049h178l86 -195h-178z" />
    <glyph glyph-name="less" unicode="&#x3c;" horiz-adv-x="1339" 
d="M186 451l-57 129l823 469l66 -146l-668 -387l1020 -403l64 -146z" />
    <glyph glyph-name="equal" unicode="=" horiz-adv-x="1339" 
d="M223 387h1032l58 -129h-1032zM43 791h1032l58 -129h-1033z" />
    <glyph glyph-name="greater" unicode="&#x3e;" horiz-adv-x="1339" 
d="M1223 451l-834 -484l-72 162l666 387l-1010 387l-73 162l1265 -485z" />
    <glyph glyph-name="question" unicode="?" horiz-adv-x="1016" 
d="M754 193l86 -193h-162l-86 193h162zM545 338l-109 242q-12 30 -12 61v16q6 37 22 74l31 51q17 25 33 52q37 63 61 135q11 30 11 63q0 43 -19 94q-2 4 -4 11l-4 8q-57 129 -168 184q-113 53 -217 60q-10 2 -18 2h-19q-61 0 -110 -11q-48 -12 -76 -28l-66 147l35 8
q16 4 35 6q35 9 72 13q36 2 73 2q174 0 344 -86q168 -88 262 -299q35 -80 35 -146q0 -28 -6 -55q-22 -86 -63 -154q-27 -40 -47 -77q-25 -37 -37 -74q-9 -27 -9 -53q0 -27 13 -54l86 -192h-129z" />
    <glyph glyph-name="at" unicode="@" horiz-adv-x="1628" 
d="M922 1178h145l68 -549l4 -31l4 -37l4 -16q0 -10 2 -19q2 -18 6 -37q4 -18 10 -34q11 -23 27 -37q18 -17 45 -17q82 0 117 80q35 78 37 172v17q0 47 -9 92q-8 53 -24 90q-105 231 -309 375q-205 141 -394 178q-30 6 -59 10q-29 2 -55 2q-277 0 -363 -186
q-47 -103 -47 -213q0 -96 35 -201l16 -39q6 -20 15 -39q125 -278 397 -469q274 -192 528 -192q52 0 107 10q55 8 106 31q72 28 125 86q56 57 70 147l145 2q-12 -153 -90 -237q-80 -84 -188 -117q-54 -18 -111 -25.5t-115 -7.5q-337 13 -649 236q-315 223 -456 540
q-3 7 -7 15q-2 6 -6 14q-73 186 -73 318q0 71 22 129q61 159 186 233q76 43 158 61q80 17 143 17h21t20 -2q252 -15 535 -189q283 -176 408 -454q63 -160 63 -275q0 -32 -4 -61q-25 -133 -92 -201q-37 -39 -80 -57.5t-82 -18.5q-74 0 -141 31q-68 29 -97 66q-14 -25 -36 -43
q-25 -19 -54 -31q-28 -10 -57 -16q-27 -7 -51 -7q-140 13 -248 103q-113 88 -170 219q-14 33 -27 68q-10 34 -18 69q-12 64 -12 125q0 107 41 203q63 149 225 149q86 0 161.5 -32.5t133.5 -81.5zM954 709v16q0 51 -10 96q-10 51 -29 92q-34 82 -94 125q-57 41 -114 41
q-29 0 -58 -14q-28 -14 -53 -43q-51 -55 -66 -160q-4 -22 -4 -45q0 -92 52 -207q47 -102 100 -141q53 -41 100 -49h17q6 -2 14 -2q18 0 37 6q16 6 28 18q44 33 64 105q16 59 16 131v29v2z" />
    <glyph glyph-name="A" unicode="A" horiz-adv-x="1354" 
d="M266 1483h162l1255 -1483h-159l-342 403h-725l35 -403h-162zM1075 532l-669 822l40 -822h629z" />
    <glyph glyph-name="B" unicode="B" horiz-adv-x="1354" 
d="M-137 1483h516q219 -2 373 -103q153 -100 229 -270q35 -80 35 -141q0 -41 -15 -74q-36 -86 -129 -123l38.5 -8t39.5 -10q109 -33 226 -113q114 -82 192 -256q8 -16 14 -33q7 -18 11 -37q16 -49 16 -96q0 -63 -31 -121q-53 -98 -274 -98h-582zM352 709l258 -580h371h8
q176 0 221 72q21 30 21 73q0 60 -39 144q-76 170 -225 229q-150 60 -357 60zM66 1354l229 -516h291h12q184 0 231 67q25 33 25 78q0 49 -29 111q-53 120 -153 190q-101 68 -283 68z" />
    <glyph glyph-name="C" unicode="C" horiz-adv-x="1354" 
d="M938 1145q-59 106 -186 182q-125 74 -283 74q-248 -12 -279 -201q-6 -39 -6 -80q0 -162 90 -364l31 -66l39 -69q111 -191 293 -351q182 -159 407 -159q170 0 226 63q39 43 39 119q0 35 -9 76l160 2q15 -60 15 -113q0 -96 -48 -166q-71 -108 -325 -108q-338 0 -600 241
q-260 240 -389 531q-99 219 -99 407q0 62 11 119q43 236 387 248h43q24 -2 45 -4q157 -15 325 -99q166 -84 277 -284z" />
    <glyph glyph-name="D" unicode="D" horiz-adv-x="1468" 
d="M-152 1483h484q375 -2 639 -238q264 -235 397 -538q80 -193 80 -336q0 -107 -45 -187q-109 -184 -412 -184h-483zM49 1354l545 -1225h340h4q221 0 317 147q39 62 39 148q0 127 -82 311l-8 21l-8 16q-123 279 -356.5 429.5t-546.5 150.5z" />
    <glyph glyph-name="E" unicode="E" horiz-adv-x="1241" 
d="M-121 1483h887l57 -129h-741l235 -531h711l57 -129h-710l252 -565h774l57 -129h-919z" />
    <glyph glyph-name="F" unicode="F" 
d="M-137 1483h839l58 -129h-694l235 -531h662l57 -129h-662l310 -694h-146z" />
    <glyph glyph-name="G" unicode="G" horiz-adv-x="1468" 
d="M762 758h516l309 -695q-41 -32 -94 -49.5t-113 -27.5q-59 -11 -118.5 -15t-114.5 -4q-328 0 -606 217q-281 217 -432 555q-27 60 -48 129q-20 68 -32 138q-6 47 -6 92q0 131 55 245q76 154 340 154q219 0 409 -108q191 -109 279 -279l-164 2q-61 102 -154 160
q-96 57 -186 80q-35 8 -67 12q-31 4 -60 4q-229 0 -276 -180q-15 -51 -15 -111q0 -147 86 -338q154 -342 346 -477q193 -135 365 -160q29 -4 55 -6q29 -2 56 -2q36 0 77 4q41 2 84 10.5t80 20.5t66 31l-209 469h-371z" />
    <glyph glyph-name="H" unicode="H" horiz-adv-x="1468" 
d="M-137 1483h145l287 -645h790l-286 645h145l660 -1483h-146l-315 709h-791l316 -709h-146z" />
    <glyph glyph-name="I" unicode="I" horiz-adv-x="565" 
d="M-121 1483h146l659 -1483h-145z" />
    <glyph glyph-name="J" unicode="J" horiz-adv-x="1016" 
d="M375 1483h145l465 -1047q64 -141 64 -241q0 -54 -19 -95q-51 -116 -293 -116q-168 0 -319 114q-154 115 -223 271l143 2q78 -123 170 -191.5t235 -68.5q109 0 142 77q10 23 10 54q0 73 -53 192z" />
    <glyph glyph-name="K" unicode="K" horiz-adv-x="1241" 
d="M-121 1483h146l286 -645l359 645h178l-377 -676l1100 -807h-193l-1024 741l330 -741h-145z" />
    <glyph glyph-name="L" unicode="L" 
d="M-137 1483h145l602 -1354h744l57 -129h-889z" />
    <glyph glyph-name="M" unicode="M" horiz-adv-x="1919" 
d="M-152 1483h226l1122 -1290l-27 1290h228l659 -1483h-145l-596 1339l47 -1339h-162l-1145 1339l596 -1339h-143z" />
    <glyph glyph-name="N" unicode="N" horiz-adv-x="1468" 
d="M-152 1483h160l1397 -1290l-574 1290h146l659 -1483h-178l-1374 1274l567 -1274h-143z" />
    <glyph glyph-name="O" unicode="O" horiz-adv-x="1581" 
d="M127 758q-100 227 -100 403q0 78 18 146q59 223 399 223q304 0 566 -209q262 -211 405 -465q17 -29 31 -57q16 -31 29 -60q6 -12 10 -22q6 -12 10 -23q68 -172 68 -323q0 -86 -21 -166q-59 -221 -407 -221q-363 0 -607 223q-241 221 -399 549zM272 758q121 -269 330 -457
q209 -190 475 -190t314 176q12 47 12 102q0 148 -90 350q-119 267 -338 464.5t-473 197.5q-215 0 -275 -158q-32 -84 -32 -176q0 -84 26 -174q6 -25 17 -49q8 -27 20 -51q2 -9 6 -17q4 -10 10 -20z" />
    <glyph glyph-name="P" unicode="P" horiz-adv-x="1241" 
d="M-137 1483h469q194 -2 399 -97q201 -94 303 -323q47 -105 47 -182q0 -90 -65 -142q-121 -96 -328 -96l-307 2l287 -645h-146zM66 1354l258 -580h307h8q164 0 240 66q43 34 43 96q0 53 -33 127q-66 145 -182 217q-119 72 -301 72z" />
    <glyph glyph-name="Q" unicode="Q" horiz-adv-x="1581" 
d="M121 758q-90 203 -90 366q0 90 26 168q74 221 389 221q316 0 582 -202q266 -205 434 -555q86 -195 90 -338v-31q0 -123 -28 -197q-13 -26 -25 -45q-10 -20 -24 -34q90 12 167 14q74 2 146 2l57 -127h-291h-59t-49 2q-25 2 -43 4h-35t-31 -2l-24 -4q-29 -10 -66 -20
q-35 -11 -78 -13h-8h-10q-387 0 -641 244q-252 242 -387 545zM266 758q150 -305 367 -484q221 -180 463 -180q229 0 280 187q17 53 17 116q0 152 -93 359q-131 291 -352 461q-225 167 -444 167q-260 -12 -293 -204q-10 -54 -10 -109q0 -147 67 -315z" />
    <glyph glyph-name="R" unicode="R" horiz-adv-x="1354" 
d="M-119 1468h565q207 -2 355 -112q149 -113 209 -246q49 -111 49 -178q0 -29 -8 -49q-29 -74 -133 -111q57 -8 92 -24q37 -17 61 -33q8 -8 19 -15l12 -12q6 -2 12 -6l6 -6q56 -43 113 -139.5t113 -204.5q2 -4 6 -8q2 -5 2 -9l100 -184q49 -88 96 -131h-143
q-47 37 -90 110.5t-88 159.5q-6 17 -15 33q-8 16 -18 33q-72 139 -164 256q-92 115 -231 115l-436 2l315 -709h-145zM78 1354l229 -516h355h8q139 0 200 61q29 31 29 80q2 49 -29 115q-59 133 -163 196q-107 62 -289 62z" />
    <glyph glyph-name="S" unicode="S" horiz-adv-x="1241" 
d="M412 403q73 -135 194 -221q123 -88 266 -88q211 0 265 86q28 45 28 96q0 43 -20 91q-37 82 -119 155q-80 72 -180 105q-31 10 -62.5 18t-62.5 17q-21 6 -39 12q-18 4 -41 10q-199 55 -385 146.5t-285 312.5q-30 67 -30 129q0 71 41 137q73 121 266 121q207 0 389 -92
t268 -262l-143 2q-37 82 -160 153q-127 70 -297 70q-133 -8 -176 -88q-23 -41 -23 -86q0 -43 21 -90q29 -66 98 -127q66 -64 174 -109q47 -18 97 -35q45 -16 92 -30q33 -11 61 -19l58 -18q184 -56 340 -131q153 -78 237 -267q53 -118 53 -202q0 -95 -69 -142
q-133 -90 -340 -90q-193 0 -363 102.5t-297 331.5z" />
    <glyph glyph-name="T" unicode="T" 
d="M-311 1468h1095l52 -114h-484l602 -1354h-145l-602 1354h-467z" />
    <glyph glyph-name="U" unicode="U" horiz-adv-x="1468" 
d="M-143 1483h145l416 -934q102 -232 272 -342q170 -113 350 -113q183 0 232 119q16 39 16 90q0 100 -63 244l-416 936h145l416 -934q78 -176 78 -316q0 -51 -10 -96q-39 -170 -342 -170t-506 164q-205 162 -318 416z" />
    <glyph glyph-name="V" unicode="V" horiz-adv-x="1241" 
d="M-330 1483h162l1077 -1338l-143 1338h145l144 -1483h-160z" />
    <glyph glyph-name="W" unicode="W" horiz-adv-x="2048" 
d="M-330 1483h146l942 -1321l-168 1321h176l1040 -1321l-266 1321h146l288 -1483h-192l-1049 1339l193 -1339h-193z" />
    <glyph glyph-name="X" unicode="X" horiz-adv-x="1241" 
d="M-297 1483h193l675 -613l148 613h162l-187 -709l860 -774h-159l-748 662l-139 -662h-162l172 774z" />
    <glyph glyph-name="Y" unicode="Y" horiz-adv-x="1241" 
d="M-313 1483h176l743 -692l129 692h160l-166 -821l295 -662h-145l-287 645z" />
    <glyph glyph-name="Z" unicode="Z" 
d="M-266 1483h985l49 -113l-254 -1241h807l57 -129h-968l-58 129l254 1241h-823z" />
    <glyph glyph-name="bracketleft" unicode="[" horiz-adv-x="565" 
d="M-215 1499h289l51 -113h-143l651 -1466h143l51 -113h-288z" />
    <glyph glyph-name="backslash" unicode="\" horiz-adv-x="565" 
d="M-442 1483h145l1305 -1483h-146z" />
    <glyph glyph-name="bracketright" unicode="]" horiz-adv-x="565" 
d="M-264 1499h291l753 -1692h-291l-51 113h146l-652 1466h-145z" />
    <glyph glyph-name="asciicircum" unicode="^" horiz-adv-x="1339" 
d="M406 1419h112l895 -919h-145l-740 757l-34 -757h-146z" />
    <glyph glyph-name="underscore" unicode="_" horiz-adv-x="1016" 
d="M31 -242l-60 129h1033l59 -129h-1032z" />
    <glyph glyph-name="grave" unicode="`" horiz-adv-x="532" 
d="M-53 1452h192l332 -307h-113z" />
    <glyph glyph-name="a" unicode="a" horiz-adv-x="1016" 
d="M14 774q-28 64 -28 113q0 61 47 100q86 68 219 74q8 2 18 2h19q145 0 282 -74q138 -76 230 -282l217 -482q55 -123 98 -196q4 -9 8 -15q4 -8 9 -14h-129v2q-3 0 -5 2q-30 45 -49.5 84l-19.5 39q-4 -51 -39 -84q-37 -35 -84 -51q-33 -12 -64 -19q-34 -6 -63 -6
q-182 0 -313 101q-134 100 -187 221q-33 82 -33 141q0 98 86 137q138 60 476 60q-56 121 -134 223q-79 100 -237 100q-121 0 -166 -47q-29 -26 -29 -65q0 -29 17 -66zM758 516q-10 -2 -21 -2h-22q-185 0 -322 -33q-92 -22 -92 -98q0 -39 25 -94q47 -107 141 -158
q92 -51 180 -51q10 0 19 2h16q41 4 76 20q30 17 53 41q33 39 33 105v8q0 72 -49 184l-15 35q-10 19 -22 39v2z" />
    <glyph glyph-name="b" unicode="b" 
d="M-207 1483h146l258 -580q8 47 39 78q26 31 65 49q37 19 76 27q39 6 69 6h9h6t6 2h6q162 0 346 -131q182 -131 309 -387q78 -174 78 -322q0 -41 -6 -80q-29 -178 -213 -178h-4h-6h-4h-6q-121 0 -240 47q-121 45 -192 129q6 -12 20 -51q16 -41 27 -86q0 -2 2 -4l-2 -2h-146
q-57 156 -88 230.5t-53 121.5zM983 549q-14 31 -39.5 76t-58.5 90q-68 88 -164 162q-98 73 -225 73q-144 0 -187 -119q-16 -43 -16 -92q0 -92 53 -209q86 -192 240 -321q151 -131 332 -131q145 0 151 133v16q0 127 -86 320v2z" />
    <glyph glyph-name="c" unicode="c" horiz-adv-x="1016" 
d="M721 709q-47 106 -146.5 173.5t-220.5 67.5q-141 0 -174 -92q-16 -51 -16 -106q0 -47 12 -101q8 -30 21 -61q8 -31 22 -60q10 -24 25 -51q12 -26 26 -53q70 -125 184.5 -231.5t288.5 -116.5q97 0 148 69q24 33 24 78q0 49 -28 111l145 2q35 -96 35 -168q0 -64 -29 -109
q-63 -94 -245 -94q-181 0 -373 131q-195 129 -330 432q-70 156 -70 258q0 35 9 64q30 113 110 162q39 26 84 39q45 10 82 10h8h6q3 0 5 2h6q147 0 302.5 -100.5t217.5 -221.5l4 -8l4 -8q2 -6 4 -10q4 -6 4 -10z" />
    <glyph glyph-name="d" unicode="d" 
d="M647 1483l502 -1129l68 -147q40 -88 106 -207h-145q-4 6 -13 16q-4 9 -12 19q-23 41 -39 76l-16 32q-4 -71 -66 -123q-65 -53 -162 -53h-12h-10h-4q-207 0 -369 148q-164 147 -262 325q-16 27 -27 54q-14 26 -26 53q-72 160 -72 264q0 33 8 59q29 111 105 156
q35 21 74.5 29t74.5 8q146 0 246 -45q98 -45 164 -117l-258 582h145zM305 549q96 -219 225 -336q127 -119 285 -119q170 0 184 137q2 21 2 41q0 121 -67 275q-80 182 -234 293q-151 110 -284 110q-137 -10 -158 -108q-8 -37 -8 -76q0 -66 22 -137l17 -41.5l16 -40.5v2z" />
    <glyph glyph-name="e" unicode="e" 
d="M965 354h145q14 -71 14 -129q0 -106 -51 -159q-80 -82 -250 -82q-250 0 -422 145t-266 322l-20 41q-11 18 -19 38q-63 142 -63 254q0 78 30 142q74 153 256 153q242 0 424 -157q179 -158 271 -349q4 -8 6 -14q4 -8 8 -14q2 -6 4 -13q4 -6 4 -10l4 -12t7 -12l-793 2
q14 -33 37 -68q20 -35 47 -72q70 -100 178 -182q111 -84 236 -84h6h6h6h4q113 8 156 53q41 46 47 97v20q0 21 -2 39q-4 27 -10 49v2zM850 612q-2 2 -2 6q-2 3 -2 7l-4 8q0 2 -2 6q-58 131 -168 209q-111 76 -211 94q-19 4 -35 6q-18 2 -35 2q-31 0 -67 -4q-35 -6 -68 -26
q-43 -27 -63 -97q-9 -26 -9 -65q0 -62 21 -148z" />
    <glyph glyph-name="f" unicode="f" horiz-adv-x="678" 
d="M117 1032l-101 225q-34 80 -34 132q0 38 18 61q45 53 127 55h8h4q37 0 76 -6q39 -8 72 -18l49 -111q-27 8 -51 14q-27 5 -49 5q-60 0 -86 -41q-11 -17 -11 -41q0 -39 27 -99l80 -176h241l50 -112h-242l410 -920h-130l-409 920h-209l-49 112h209z" />
    <glyph glyph-name="g" unicode="g" 
d="M575 1032h130q10 -24 24 -61l29 -80q2 -4 4 -6q2 -4 2 -6q16 -43 33 -82q12 -39 20 -58l295 -659q66 -152 66 -277q0 -24 -2 -49q-15 -145 -299 -157q-185 0 -328 77q-146 76 -199 191q0 2 -2 6v4q-2 4 -2 6q-2 2 -4 6h129q55 -96 152 -137q94 -41 202 -41q121 0 168 53
q45 54 47 119v17q0 24 -4 47q-8 30 -18 55l-80 178q-20 -88 -78.5 -133t-179.5 -45q-217 0 -397 156q-181 153 -285 358q-4 12 -10 25q-4 10 -8 22q-54 131 -54 248q0 45 8 88q29 154 273 166q108 0 207 -41q96 -41 211 -137l-19 43q-16 43 -31 102v2zM774 549
q-76 168 -221 285q-147 116 -281 116q-133 0 -168 -92q-18 -53 -18 -113q0 -45 10 -94q6 -30 19 -61q8 -31 22 -60q70 -157 221 -288q152 -131 273 -131q137 0 190 104q23 43 23 98q0 82 -49 195q-2 4 -7 10q-2 4 -2 8q-4 4 -8 11q-2 4 -4 10v2z" />
    <glyph glyph-name="h" unicode="h" 
d="M-168 1483h129l272 -613q-2 17 -2 33q0 62 43 105q56 55 211 55q158 0 299 -98q144 -99 236 -306l293 -659h-129l-273 612l-20 43q-12 23 -27 47q-55 93 -149 170q-94 78 -230 78q-145 0 -163 -102q-7 -33 -7 -68q0 -75 33 -162q2 -10 6 -20l8 -20l259 -578h-129z" />
    <glyph glyph-name="i" unicode="i" horiz-adv-x="451" 
d="M33 1032h129l459 -1032h-129zM-184 1483h161l70 -160h-162z" />
    <glyph glyph-name="j" unicode="j" horiz-adv-x="451" 
d="M-68 1016h129l502 -1129q4 -8 8 -14q2 -8 7 -14q55 -125 59 -195v-4q0 -66 -164 -66h-24q-15 0 -29 3l-58 129q109 0 115 26v6q0 33 -43 129zM-291 1483h162l70 -160h-162z" />
    <glyph glyph-name="k" unicode="k" horiz-adv-x="1016" 
d="M-152 1483h129l388 -871l297 420h161l-315 -452l821 -580h-162l-774 549l244 -549h-129z" />
    <glyph glyph-name="l" unicode="l" horiz-adv-x="451" 
d="M-168 1483h129l660 -1483h-129z" />
    <glyph glyph-name="m" unicode="m" horiz-adv-x="1806" 
d="M115 887q4 8 8 18q4 8 8 19q25 51 76 96q51 43 151 43q33 0 76 -4q41 -4 88 -21q64 -20 133 -67q70 -47 144 -135q4 75 39 125q36 47 86 73q30 15 63 23q35 6 66 6q194 0 329 -105q136 -106 199 -251l315 -707h-129l-301 678q-8 18 -20 38.5t-29 43.5q-51 71 -139 130.5
t-209 59.5q-22 0 -45 -4q-23 -6 -45 -18q-57 -31 -84 -107q-8 -22 -8 -49q0 -67 43 -162l272 -610h-129l-301 678q-47 102 -156 188q-110 84 -231 84h-12h-13q-114 -10 -143 -104q-10 -41 -10 -84q0 -60 20 -123q6 -12 10.5 -23.5l8.5 -21.5l264 -594h-129l-352 791
q-4 10 -9 20q-4 8 -8 18q-14 29 -32 70l-74 131l129 2q39 -61 59 -104l23 -43z" />
    <glyph glyph-name="n" unicode="n" 
d="M131 887q4 8 8 18q4 8 8 19q25 51 74 96q51 43 154 43q28 0 77.5 -10.5t108.5 -32.5q92 -37 189 -109q94 -71 147 -188l322 -723h-129l-302 678q-47 102 -155 188q-111 84 -232 84h-12h-12q-115 -10 -144 -104q-10 -41 -10 -84q0 -60 21 -123q6 -12 10 -23.5t8 -21.5
l264 -594h-129l-352 791l-8 20q-4 8 -8 18q-15 29 -33 70l-74 131l129 2q39 -61 60 -104l22 -43z" />
    <glyph glyph-name="o" unicode="o" 
d="M76 532q-66 148 -66 265q0 65 21 123q53 159 270 159t420 -153q201 -154 309 -396q68 -155 68 -276q0 -68 -21 -125q-59 -162 -264 -162t-416 162q-213 160 -319 401zM205 532q94 -182 248 -317q153 -137 311 -137q156 0 184 139q8 39 8 80q0 106 -53 227q0 2 -2 4v2
q-74 164 -225 299q-154 136 -301 136h-4h-6h-7h-6q-151 -11 -186 -138q-10 -41 -10 -84q0 -96 51 -213z" />
    <glyph glyph-name="p" unicode="p" 
d="M-84 1065q12 -14 23 -29q8 -16 18 -32q16 -33 31 -60l12 -26q4 10 10 20l8 20q35 60 97 82q59 23 174 23q219 0 380.5 -139.5t254.5 -345.5q100 -222 100 -385q0 -25 -2 -48q-14 -178 -246 -178q-121 0 -231 56q-111 53 -209 137l244 -547h-129l-525 1178l-32 73l-29 62
q-17 30 -33 63l-43 74zM178 516q12 -31 31 -59q14 -29 35 -60q75 -112 196 -207.5t265 -95.5q161 0 174 119q2 23 2 47q0 100 -41 215q-9 19 -15 37q-8 16 -16 34.5l-16 37.5q-11 18 -21 37q-72 129 -190 237q-117 107 -267 107q-180 0 -198 -117q-6 -33 -6 -68
q0 -90 36 -190l17 -37q6 -21 14 -39v2z" />
    <glyph glyph-name="q" unicode="q" 
d="M561 1065h129q4 -10 6 -18.5t6 -16.5q19 -65 50 -131q26 -68 61 -143l508 -1143h-129l-252 565q-6 -69 -43 -115q-37 -45 -88 -67q-31 -14 -66 -21q-32 -8 -63 -8q-207 0 -385 160q-176 160 -279 385q-4 6 -6 12t-4 15q-2 6 -6 12l-4 12q-64 139 -64 258q0 47 11 90
q32 152 250 152q96 0 194 -25q98 -24 225 -120l-14 36q-16 35 -27 78q-2 8 -4 17q-2 6 -4 14zM782 532q-4 9 -8 21q-4 10 -12 20q-74 148 -203 271q-133 121 -291 121q-170 0 -192 -117q-6 -29 -6 -60q0 -102 61 -241q8 -19 19 -35l16 -37q76 -143 194 -262
q119 -119 281 -119q170 0 193 125q6 35 6 72q0 94 -41 201q-2 10 -6 20q-5 8 -9 18z" />
    <glyph glyph-name="r" unicode="r" horiz-adv-x="678" 
d="M-78 1032h129q15 -20 25 -35.5t18 -29.5q8 -17 17 -31q6 -16 14 -35q-2 17 -2 31q0 94 65 112q66 19 162 19h21h18h19l49 -111q-15 0 -27 2h-29q-125 0 -176 -82q-24 -38 -24 -88q0 -55 32 -125l293 -659h-129l-381 854q-10 23 -18 45q-10 21 -23 43q-10 21 -22 43
l-31 45v2z" />
    <glyph glyph-name="s" unicode="s" horiz-adv-x="1016" 
d="M317 307q62 -110 168 -162q107 -51 203 -51q121 0 182 51q35 29 35 76q0 37 -20 84q-45 101 -152 139q-106 37 -229 64l-23.5 4t-21.5 4q-135 29 -262 82q-127 51 -189 190q-24 52 -24 99q0 51 28 94q51 82 244 82q158 0 297 -49q139 -51 221 -209l-145 2
q-45 70 -131 115q-90 43 -199 43t-141 -33q-29 -33 -29 -70v-4q4 -14 6 -27q4 -14 10 -26q35 -76 125 -109.5t203 -58.5q23 -6 44.5 -10t43.5 -11q137 -32 268 -92q129 -59 195 -205q33 -73 33 -133q0 -75 -51 -127q-93 -92 -263 -92q-28 0 -61 4q-31 2 -66 9
q-108 20 -227 93.5t-199 231.5z" />
    <glyph glyph-name="t" unicode="t" horiz-adv-x="678" 
d="M-98 920l-49 112h208l-94 209l109 49l114 -258h242l49 -112h-241l301 -678q43 -97 98 -129q51 -35 113 -35q28 0 57 4q27 4 57 12l49 -110q-34 -11 -69 -15q-35 -6 -68 -6q-121 0 -207 62q-90 61 -135 165l-325 730h-209z" />
    <glyph glyph-name="u" unicode="u" 
d="M57 1016l267 -596q75 -172 174 -250q96 -80 235 -92h6h4h7q4 -2 6 -2q125 0 153 114q9 33 9 70q0 90 -52 205l-245 551h129l337 -758l56 -119.5t76 -138.5h-129l-13 16q-4 9 -12 19q-23 41 -39 76l-16 32q-11 -84 -54 -129q-45 -47 -190 -47q-205 0 -336 111
q-133 110 -213 291l-289 647h129z" />
    <glyph glyph-name="v" unicode="v" horiz-adv-x="1016" 
d="M-197 1032h146l727 -839l-51 839h145l55 -1032h-145z" />
    <glyph glyph-name="w" unicode="w" horiz-adv-x="1694" 
d="M-213 1032h145l684 -854l-71 854h162l667 -854l-88 854h146l88 -1032h-129l-703 887l74 -887h-129z" />
    <glyph glyph-name="x" unicode="x" horiz-adv-x="1016" 
d="M-166 1032h178l461 -420l121 420h160l-158 -516l616 -516h-159l-494 420l-137 -420h-143l163 500z" />
    <glyph glyph-name="y" unicode="y" horiz-adv-x="1016" 
d="M-315 1032h161l727 -839l-34 839h145l51 -1419h-145l-19 403z" />
    <glyph glyph-name="z" unicode="z" horiz-adv-x="903" 
d="M-133 1032h758l57 -129l-252 -774h596l57 -129h-757l-58 129l254 774h-598z" />
    <glyph glyph-name="braceleft" unicode="{" horiz-adv-x="565" 
d="M49 709q96 10 96 59v8q-6 58 -43 142l-125 276q-51 119 -51 182q0 39 19 58q51 47 196 47l49 -111q-57 -2 -92 -24q-14 -11 -14 -33q0 -29 20 -74l136 -303q53 -123 59 -188v-15q0 -57 -59 -90q100 -37 153 -106q56 -72 99 -168l106 -240q45 -102 84 -156.5t121 -54.5h18
q8 0 15 2l51 -113q-17 -4 -33 -4h-33q-147 0 -225 91q-78 88 -135 217l-123 276l-10 21l-9 22q-28 51 -71 96q-47 43 -142 52z" />
    <glyph glyph-name="bar" unicode="|" horiz-adv-x="451" 
d="M-168 1483h129l660 -1483h-129z" />
    <glyph glyph-name="braceright" unicode="}" horiz-adv-x="565" 
d="M338 645q-86 37 -148 105q-61 65 -102 137l-16 33q-9 14 -17 30l-121 275q-26 59 -65 94q-39 33 -135 33l-58 131q170 -2 250 -47q80 -47 140 -181l129 -288q59 -133 127 -197q65 -63 149 -63l57 -127q-84 -2 -94 -64q-2 -14 -2 -29q0 -53 29 -118l155 -353
q25 -53 25 -92q0 -37 -20 -63q-41 -56 -154 -56h-21q-12 0 -24 2l-57 130q10 -3 18 -3h16q76 0 76 39v7q-6 43 -31 98l-114 260q-43 94 -51 182v19q0 71 59 104v2z" />
    <glyph glyph-name="asciitilde" unicode="~" horiz-adv-x="1339" 
d="M193 436q6 76 47 127q39 51 100 70q16 6 35 8q14 2 31 2q67 0 141 -22q71 -23 141 -50l125 -51q57 -22 94 -22q43 0 64 34q20 35 30 78q9 17 13 35q2 17 6 31l127 -64v-10q-2 -4 -2 -8q-15 -102 -53 -156q-43 -53 -136 -53q-73 0 -149 23q-74 22 -143 51q-68 26 -121 49
q-56 22 -86 22q-66 0 -95 -43q-28 -43 -43 -96q-4 -12 -8 -22q-2 -13 -6 -23q-2 -2 -2 -4q0 -4 -2 -6z" />
    <glyph glyph-name="Adieresis" unicode="&#xc4;" horiz-adv-x="1354" 
d="M612 1499h162l596 -1499h-160l-161 403h-727l-144 -403h-162zM999 532l-305 822l-323 -822h628zM436 1839h176v-194h-176v194zM791 1839h176v-194h-176v194z" />
    <glyph glyph-name="Aring" unicode="&#xc5;" horiz-adv-x="1354" 
d="M612 1499h162l596 -1499h-160l-161 403h-727l-144 -403h-162zM999 532l-305 822l-323 -822h628zM532 1790q0 70 48 123q45 53 129 53q86 0 141 -47q53 -47 53 -131q0 -96 -53 -143q-55 -50 -141 -50q-84 0 -129 56q-48 53 -48 137v2zM823 1790q0 47 -32 72q-33 22 -82 22
q-47 0 -72 -29.5t-25 -66.5v-12q0 -9 2 -17q4 -30 24.5 -57t70.5 -27q61 0 87.5 33t26.5 80v2z" />
    <glyph glyph-name="Ccedilla" unicode="&#xc7;" horiz-adv-x="1354" 
d="M1112 1145q-12 106 -104 182q-93 74 -250 74q-254 -12 -369 -201.5t-115 -443.5q0 -33 2 -66q3 -35 9 -69q24 -191 137 -351q110 -159 336 -159q170 0 254 63q82 62 116 195l162 2q-33 -158 -170 -273q-139 -116 -342 -118h-16q-10 0 -19 2q-8 0 -16 2h-18l-31 -80
q8 2 16 2h15q79 0 135 -39q55 -41 55 -94v-13q-2 -6 -2 -12q-2 -4 -4 -10t-6 -12q-23 -48 -82.5 -68t-128.5 -20h-8h-11q-63 2 -120 18q-58 14 -86 37l16 49q20 -10 43 -16q22 -9 47 -15q27 -6 53 -8q25 -4 47 -4q41 0 68 10t33 33l8 20q2 9 2 19q0 35 -31.5 45t-70.5 12h-7
h-8h-28h-27l49 146q-254 22 -393 251.5t-139 520.5t147 526q148 236 498 248h43l43 -4q151 -15 280 -99t150 -284z" />
    <glyph glyph-name="Eacute" unicode="&#xc9;" horiz-adv-x="1241" 
d="M209 1483h887v-129h-742v-531h711v-129h-711v-565h774v-129h-919v1483zM709 1903h194l-274 -306h-113z" />
    <glyph glyph-name="Ntilde" unicode="&#xd1;" horiz-adv-x="1468" 
d="M178 1483h160l823 -1290v1290h146v-1483h-179l-806 1274v-1274h-144v1483zM451 1677q16 64 51 103t73 57q19 8 36.5 12t33.5 4q37 0 60 -6q22 -8 43 -18q2 -2 4 -2q2 -2 4 -2q18 -8 37 -15q18 -6 45 -6q34 0 59 19q23 18 37 39q0 2 2 4v2l96 2q-18 -76 -53 -115
q-37 -41 -78 -55q-12 -4 -22 -6q-13 -2 -25 -2q-37 0 -61 8q-27 6 -52 16l-49 17q-26 6 -63 6t-60.5 -19.5t-36.5 -44.5z" />
    <glyph glyph-name="Odieresis" unicode="&#xd6;" horiz-adv-x="1581" 
d="M129 741q0 326 162 549q160 223 500 223q303 0 471 -208q168 -211 198 -465q4 -29 6 -58.5t2 -58.5v-23v-22q-12 -268 -170 -490q-159 -221 -507 -221q-363 0 -506 223q-144 224 -156 549v2zM274 741q0 -268 125 -456q125 -191 392 -191q266 0 391 176q125 174 125 453
q0 268 -131.5 464.5t-384.5 196.5q-216 0 -347 -157q-133 -160 -161 -350q-4 -25 -7 -50q-2 -26 -2 -51v-16v-21v2zM549 1919h176v-193h-176v193zM903 1919h178v-193h-178v193z" />
    <glyph glyph-name="Udieresis" unicode="&#xdc;" horiz-adv-x="1468" 
d="M193 1483h145v-934q0 -232 121 -342q119 -113 299 -113q182 0 284 119q103 117 103 334v936h145v-934q0 -244 -114 -412q-115 -170 -418 -170t-434 164q-131 162 -131 416v936zM467 1903h178v-193h-178v193zM823 1903h176v-193h-176v193z" />
    <glyph glyph-name="aacute" unicode="&#xe1;" horiz-adv-x="1016" 
d="M129 774q0 146 115 213q114 68 252 74q8 2 18 2h18q146 0 250 -74q105 -76 105 -282q0 -361 2 -482q0 -123 10 -196q0 -9 2 -15q0 -8 2 -14h-129v2q-2 0 -2 2q-10 45 -12 84l-2 39q-29 -51 -78 -84q-51 -35 -107 -51q-36 -12 -71 -19q-37 -6 -66 -6q-182 0 -268 101
q-88 100 -88 221q12 217 176 277.5t502 60.5q0 121 -33 223q-35 100 -193 100q-120 0 -188 -47q-70 -47 -70 -131zM758 516q-10 -2 -21 -2h-22q-185 0 -336 -33q-154 -32 -154 -192q0 -107 70 -158t158 -51q10 0 20 2h16q43 4 84 20q39 17 72 41q53 41 84 113t33 184v35
l-4 39v2zM565 1452h193l-275 -307h-112z" />
    <glyph glyph-name="agrave" unicode="&#xe0;" horiz-adv-x="1016" 
d="M113 774q0 146 114 213q115 68 252 74q8 2 19 2h18q146 0 250 -74q104 -76 104 -282q0 -361 2 -482q0 -123 11 -196q0 -9 2 -15q0 -8 2 -14h-129v2q-2 0 -2 2q-11 45 -13 84l-2 39q-28 -51 -77 -84q-52 -35 -107 -51q-37 -12 -72 -19q-36 -6 -65 -6q-180 0 -268.5 100.5
t-88.5 221.5q13 217 176.5 277.5t501.5 60.5q0 121 -32 223q-35 100 -193 100q-121 0 -188 -47q-70 -47 -70 -131zM741 516q-10 -2 -20 -2h-23q-184 0 -336 -33q-153 -32 -153 -192q0 -107 69.5 -158t157.5 -51q10 0 21 2h16q43 4 84 20q39 17 72 41q53 41 83.5 113
t32.5 184v35l-4 39v2zM242 1452h194l193 -307h-113z" />
    <glyph glyph-name="acircumflex" unicode="&#xe2;" horiz-adv-x="1016" 
d="M129 774q0 146 115 213q114 68 252 74q8 2 18 2h18q146 0 250 -74q105 -76 105 -282q0 -361 2 -482q0 -123 10 -196q0 -9 2 -15q0 -8 2 -14h-129v2q-2 0 -2 2q-10 45 -12 84l-2 39q-29 -51 -78 -84q-51 -35 -107 -51q-36 -12 -71 -19q-37 -6 -66 -6q-182 0 -268 101
q-88 100 -88 221q12 217 176 277.5t502 60.5q0 121 -33 223q-35 100 -193 100q-120 0 -188 -47q-70 -47 -70 -131zM758 516q-10 -2 -21 -2h-22q-185 0 -336 -33q-154 -32 -154 -192q0 -107 70 -158t158 -51q10 0 20 2h16q43 4 84 20q39 17 72 41q53 41 84 113t33 184v35
l-4 39v2zM436 1452h160l211 -307h-113l-178 209l-178 -209h-113z" />
    <glyph glyph-name="adieresis" unicode="&#xe4;" horiz-adv-x="1016" 
d="M129 774q0 146 115 213q114 68 252 74q8 2 18 2h18q146 0 250 -74q105 -76 105 -282q0 -361 2 -482q0 -123 10 -196q0 -9 2 -15q0 -8 2 -14h-129v2q-2 0 -2 2q-10 45 -12 84l-2 39q-29 -51 -78 -84q-51 -35 -107 -51q-36 -12 -71 -19q-37 -6 -66 -6q-182 0 -268 101
q-88 100 -88 221q12 217 176 277.5t502 60.5q0 121 -33 223q-35 100 -193 100q-120 0 -188 -47q-70 -47 -70 -131zM758 516q-10 -2 -21 -2h-22q-185 0 -336 -33q-154 -32 -154 -192q0 -107 70 -158t158 -51q10 0 20 2h16q43 4 84 20q39 17 72 41q53 41 84 113t33 184v35
l-4 39v2zM258 1452h178v-195h-178v195zM612 1452h179v-195h-179v195z" />
    <glyph glyph-name="atilde" unicode="&#xe3;" horiz-adv-x="1016" 
d="M129 774q0 146 115 213q114 68 252 74q8 2 18 2h18q146 0 250 -74q105 -76 105 -282q0 -361 2 -482q0 -123 10 -196q0 -9 2 -15q0 -8 2 -14h-129v2q-2 0 -2 2q-10 45 -12 84l-2 39q-29 -51 -78 -84q-51 -35 -107 -51q-36 -12 -71 -19q-37 -6 -66 -6q-182 0 -268 101
q-88 100 -88 221q12 217 176 277.5t502 60.5q0 121 -33 223q-35 100 -193 100q-120 0 -188 -47q-70 -47 -70 -131zM758 516q-10 -2 -21 -2h-22q-185 0 -336 -33q-154 -32 -154 -192q0 -107 70 -158t158 -51q10 0 20 2h16q43 4 84 20q39 17 72 41q53 41 84 113t33 184v35
l-4 39v2zM225 1257q17 64 51 103q35 39 74 57q19 8 37 13q16 4 33 4q37 0 59 -7q23 -8 43 -18q2 -2 4 -2q2 -2 4 -2q19 -8 37 -14q19 -7 45 -7q37 0 61.5 20.5t35.5 45.5l98 2q-19 -76 -53 -117q-37 -41 -78 -55q-12 -4 -23.5 -6t-23.5 -2q-37 0 -62.5 8l-50.5 16
q-24 11 -49 19q-27 6 -64 6q-36 0 -61 -21q-25 -20 -35 -45z" />
    <glyph glyph-name="aring" unicode="&#xe5;" horiz-adv-x="1016" 
d="M129 774q0 146 115 213q114 68 252 74q8 2 18 2h18q146 0 250 -74q105 -76 105 -282q0 -361 2 -482q0 -123 10 -196q0 -9 2 -15q0 -8 2 -14h-129v2q-2 0 -2 2q-10 45 -12 84l-2 39q-29 -51 -78 -84q-51 -35 -107 -51q-36 -12 -71 -19q-37 -6 -66 -6q-182 0 -268 101
q-88 100 -88 221q12 217 176 277.5t502 60.5q0 121 -33 223q-35 100 -193 100q-120 0 -188 -47q-70 -47 -70 -131zM758 516q-10 -2 -21 -2h-22q-185 0 -336 -33q-154 -32 -154 -192q0 -107 70 -158t158 -51q10 0 20 2h16q43 4 84 20q39 17 72 41q53 41 84 113t33 184v35
l-4 39v2zM338 1323q0 70 47 123q47 51 131 51t139 -45q54 -47 54 -131q0 -96 -54.5 -145.5t-138.5 -49.5t-131 55.5t-47 139.5v2zM629 1323q0 45 -33 69.5t-80 24.5t-70.5 -28.5t-25.5 -61.5v-2v-4v-12q0 -9 2 -17q4 -30 24 -57q21 -27 70 -27q59 0 86 33q27 31 27 80v2z
" />
    <glyph glyph-name="ccedilla" unicode="&#xe7;" horiz-adv-x="1016" 
d="M807 709q0 106 -68.5 173.5t-189.5 67.5q-141 0 -215 -92q-74 -94 -96 -207q-7 -30 -9 -61q-4 -31 -4 -60q0 -24 2 -51q0 -26 4 -53q13 -125 80 -231q68 -107 238 -117q96 0 178 69q80 70 80 189l145 2q-8 -160 -80 -240q-71 -80 -155 -108q-41 -15 -78 -21
q-39 -6 -72 -6q-14 0 -26 2q-15 0 -25 2l-16 -80q12 4 25.5 6.5t27.5 2.5q59 0 109 -35q47 -37 47 -86q0 -84 -62.5 -115t-146.5 -31h-13h-12q-53 2 -104 15q-54 12 -97 34l17 64q8 -4 18 -8q8 -4 19 -8q22 -9 49 -17q24 -8 53 -12q14 -4 29 -4q12 -2 26 -2q35 0 62 12
q24 10 33 39q2 4 2 10v8v7v4q-4 22 -29 40.5t-76 18.5q-14 0 -33 -2q-18 -2 -41 -6l48 145q-19 4 -37.5 9.5t-36.5 11.5q-107 39 -193 157q-88 119 -88 385q0 207 82 322q82 113 182 162q52 26 103 39q49 10 86 10h8h6q2 0 6 2h6q148 0 258.5 -100.5t118.5 -221.5v-8v-8v-10
v-10z" />
    <glyph glyph-name="eacute" unicode="&#xe9;" 
d="M887 354h145q-49 -207 -166 -288q-116 -82 -286 -82q-250 0 -357 145q-106 145 -123 322q-2 20 -2 41q-2 18 -2 38q0 242 143.5 395.5t325.5 153.5q242 0 353 -157q108 -158 116 -349v-14v-14v-13v-10q-2 -6 -2 -12v-12l-790 2q0 -33 6 -68q4 -35 14 -72q27 -100 98 -182
q72 -84 197 -84h6h6h6h5q116 8 180 53q61 46 90 97q16 30 24 59q9 27 13 49v2zM887 612v6q0 3 2 7v8v6q0 131 -76 209q-76 76 -168 94q-16 4 -33 6q-16 2 -32 2q-31 0 -70 -4q-39 -6 -80 -26q-55 -27 -106 -97q-54 -71 -82 -213zM662 1468h192l-274 -307h-113z" />
    <glyph glyph-name="egrave" unicode="&#xe8;" 
d="M870 354h146q-47 -207 -164 -288.5t-287 -81.5q-252 0 -358.5 145t-122.5 322q-2 20 -2 41q-2 18 -2 38q0 242 144.5 395.5t324.5 153.5q242 0 351.5 -157.5t117.5 -348.5v-14v-14v-13v-10q-2 -6 -2 -12v-12l-791 2q0 -33 5.5 -68t15.5 -72q26 -100 100 -182
q72 -84 197 -84h6h6h6h4q117 8 178 53q62 46 91 97q16 30 24 59q8 27 12 49v2zM870 612v6q0 3 2 7v8v6q0 131 -73 207q-76 76 -166 96q-17 4 -33 6q-18 2 -35 2q-30 0 -69 -4q-39 -6 -78 -24q-58 -29 -111 -99q-53 -69 -82 -213zM307 1468h193l194 -307h-114z" />
    <glyph glyph-name="ecircumflex" unicode="&#xea;" 
d="M887 354h145q-49 -207 -166 -288q-116 -82 -286 -82q-250 0 -357 145q-106 145 -123 322q-2 20 -2 41q-2 18 -2 38q0 242 143.5 395.5t325.5 153.5q242 0 353 -157q108 -158 116 -349v-14v-14v-13v-10q-2 -6 -2 -12v-12l-790 2q0 -33 6 -68q4 -35 14 -72q27 -100 98 -182
q72 -84 197 -84h6h6h6h5q116 8 180 53q61 46 90 97q16 30 24 59q9 27 13 49v2zM887 612v6q0 3 2 7v8v6q0 131 -76 209q-76 76 -168 94q-16 4 -33 6q-16 2 -32 2q-31 0 -70 -4q-39 -6 -80 -26q-55 -27 -106 -97q-54 -71 -82 -213zM483 1468h162l209 -307h-113l-176 209
l-178 -209h-113z" />
    <glyph glyph-name="edieresis" unicode="&#xeb;" 
d="M887 354h145q-49 -207 -166 -288q-116 -82 -286 -82q-250 0 -357 145q-106 145 -123 322q-2 20 -2 41q-2 18 -2 38q0 242 143.5 395.5t325.5 153.5q242 0 353 -157q108 -158 116 -349v-14v-14v-13v-10q-2 -6 -2 -12v-12l-790 2q0 -33 6 -68q4 -35 14 -72q27 -100 98 -182
q72 -84 197 -84h6h6h6h5q116 8 180 53q61 46 90 97q16 30 24 59q9 27 13 49v2zM887 612v6q0 3 2 7v8v6q0 131 -76 209q-76 76 -168 94q-16 4 -33 6q-16 2 -32 2q-31 0 -70 -4q-39 -6 -80 -26q-55 -27 -106 -97q-54 -71 -82 -213zM307 1468h176v-194h-176v194zM662 1468h176
v-194h-176v194z" />
    <glyph glyph-name="iacute" unicode="&#xed;" horiz-adv-x="451" 
d="M162 1032h129v-1032h-129v1032zM307 1452h193l-275 -307h-112z" />
    <glyph glyph-name="igrave" unicode="&#xec;" horiz-adv-x="451" 
d="M162 1032h129v-1032h-129v1032zM-16 1452h194l193 -307h-113z" />
    <glyph glyph-name="icircumflex" unicode="&#xee;" horiz-adv-x="451" 
d="M162 1032h129v-1032h-129v1032zM162 1452h160l210 -307h-112l-178 209l-179 -209h-112z" />
    <glyph glyph-name="idieresis" unicode="&#xef;" horiz-adv-x="451" 
d="M162 1032h129v-1032h-129v1032zM-49 1452h178v-195h-178v195zM307 1452h176v-195h-176v195z" />
    <glyph glyph-name="ntilde" unicode="&#xf1;" 
d="M291 887q8 8 16 18q8 8 17 19q47 51 116 96q70 43 172 43q29 0 74 -10.5t94 -32.5q76 -37 140 -109q63 -71 63 -188v-723h-129v678q0 102 -72 188q-71 84 -192 84h-12h-13q-121 -10 -190 -104q-70 -96 -82 -207v-23q-2 -12 -2 -22v-594h-129v791v20v18q0 29 -2 70
q-4 39 -15 131l129 2q13 -61 15 -104l2 -43v2zM291 1225q14 61 49 100q33 39 70 57q20 11 38.5 15t34.5 4q37 0 60 -6q22 -9 43 -19h4l4 -4q18 -8 36.5 -14t47.5 -6q35 0 59 20q25 21 37 45l96 2q-18 -73 -53 -112q-35 -41 -72 -58q-12 -6 -24 -8q-14 -2 -27 -2
q-37 0 -63.5 8t-48.5 17q-25 10 -52 18q-26 6 -63 6q-35 0 -59.5 -20.5t-36.5 -44.5z" />
    <glyph glyph-name="oacute" unicode="&#xf3;" 
d="M96 532q0 228 127 388q125 159 342 159t350 -153q134 -154 134 -396q0 -241 -131 -401q-132 -162 -338 -162q-205 0 -344 162q-140 160 -140 401v2zM225 532q13 -182 107 -317q92 -137 248 -137q157 0 247 139q91 139 93 307v4v2q0 164 -93 299q-92 136 -239 136h-4h-6
h-7h-6q-157 -11 -248.5 -138t-91.5 -297v2zM580 1468h194l-274 -307h-113z" />
    <glyph glyph-name="ograve" unicode="&#xf2;" 
d="M96 516q0 229 127 389q125 158 342 158t350 -154q134 -153 134 -395t-131 -401q-132 -162 -338 -162q-205 0 -344 162q-140 159 -140 401v2zM225 516q13 -182 107 -317q92 -138 248 -138q157 0 247 140q91 139 93 307v4v2q0 164 -93 301q-94 135 -243 135h-9h-10
q-157 -12 -248.5 -139t-91.5 -297v2zM307 1468h193l194 -307h-114z" />
    <glyph glyph-name="ocircumflex" unicode="&#xf4;" 
d="M113 500q0 229 125 389q124 158 342 158q219 0 352 -152q133 -154 133 -397q0 -242 -131 -402q-131 -159 -338 -159q-205 0 -344 159q-139 160 -139 402v2zM242 500q12 -183 106 -318q92 -135 248 -135q158 0 250 141q90 142 90 310v4v2q-2 162 -94 297q-92 133 -240 133
h-4h-6h-6h-6q-156 -12 -246 -139q-92 -127 -92 -297v2zM500 1452h162l208 -307h-112l-178 209l-177 -209h-112z" />
    <glyph glyph-name="odieresis" unicode="&#xf6;" 
d="M80 532q0 228 127 388q125 159 342 159t350 -153.5t133 -395.5q0 -241 -131 -401q-131 -162 -336 -162t-344 162q-141 160 -141 401v2zM209 532q12 -182 106 -317q93 -137 250 -137q156 0 246 139t92 307v4v2q0 164 -92 299q-92 136 -240 136h-4h-6h-6h-6
q-158 -11 -248 -138q-92 -127 -92 -297v2zM322 1468h178v-194h-178v194zM678 1468h176v-194h-176v194z" />
    <glyph glyph-name="otilde" unicode="&#xf5;" 
d="M80 516q0 229 127 389q125 158 342 158t350 -154q133 -153 133 -395t-131 -401q-131 -162 -336 -162t-344 162q-141 159 -141 401v2zM209 516q12 -182 106 -317q93 -138 250 -138q156 0 246 139.5t92 307.5v4v2q0 164 -92 301q-94 135 -244 135h-8h-10
q-158 -12 -248 -139q-92 -127 -92 -297v2zM274 1257q17 62 52 101q32 39 69 57q19 10 37 15q19 4 35 4q37 0 60.5 -7.5t43.5 -17.5h4q3 -2 5 -4q16 -8 35.5 -14.5t46.5 -6.5q34 0 58.5 20.5t37.5 45.5l96 2q-16 -74 -51 -113q-35 -41 -72 -57q-14 -4 -26 -6q-15 -4 -27 -4
q-37 0 -64 8q-26 8 -49 16q-24 11 -51 19q-27 6 -63 6q-35 0 -60 -21q-24 -20 -37 -45z" />
    <glyph glyph-name="uacute" unicode="&#xfa;" 
d="M291 1016v-596q0 -172 63 -250q62 -80 195 -92h6h4h6q2 -2 4 -2q125 0 205 113.5t80 275.5v551h129v-758q0 -51 2 -119q2 -69 14 -139h-129q-2 6 -4 15.5l-4 19.5q-6 41 -6 76l-2 32q-47 -84 -111 -129q-65 -47 -211 -47q-204 0 -286 111q-84 110 -84 291v647h129z
M629 1452h194l-274 -307h-113z" />
    <glyph glyph-name="ugrave" unicode="&#xf9;" 
d="M291 1016v-596q0 -172 63 -250q62 -80 195 -92h6h4h6q2 -2 4 -2q125 0 205 113.5t80 275.5v551h129v-758q0 -51 2 -119q2 -69 14 -139h-129q-2 6 -4 15.5l-4 19.5q-6 41 -6 76l-2 32q-47 -84 -111 -129q-65 -47 -211 -47q-204 0 -286 111q-84 110 -84 291v647h129z
M307 1452h193l194 -307h-114z" />
    <glyph glyph-name="ucircumflex" unicode="&#xfb;" 
d="M291 1016v-596q0 -172 63 -250q62 -80 195 -92h6h4h6q2 -2 4 -2q125 0 205 113.5t80 275.5v551h129v-758q0 -51 2 -119q2 -69 14 -139h-129q-2 6 -4 15.5l-4 19.5q-6 41 -6 76l-2 32q-47 -84 -111 -129q-65 -47 -211 -47q-204 0 -286 111q-84 110 -84 291v647h129z
M483 1436h162l209 -308h-113l-176 211l-178 -211h-113z" />
    <glyph glyph-name="udieresis" unicode="&#xfc;" 
d="M291 1016v-596q0 -172 63 -250q62 -80 195 -92h6h4h6q2 -2 4 -2q125 0 205 113.5t80 275.5v551h129v-758q0 -51 2 -119q2 -69 14 -139h-129q-2 6 -4 15.5l-4 19.5q-6 41 -6 76l-2 32q-47 -84 -111 -129q-65 -47 -211 -47q-204 0 -286 111q-84 110 -84 291v647h129z
M291 1436h176v-195h-176v195zM645 1436h178v-195h-178v195z" />
    <glyph glyph-name="dagger" unicode="&#x2020;" 
d="M162 1112h354v387h129v-387h354v-129h-354v-983h-129v983h-354v129z" />
    <glyph glyph-name="degree" horiz-adv-x="1024" 
 />
    <glyph glyph-name="cent" unicode="&#xa2;" 
d="M870 709q0 59 -24 102q-27 43 -60 66q-12 8 -22 14q-12 6 -23 10l-225 -788q21 -4 41 -7q18 -2 39 -2h8q109 0 182 60q74 59 84 172l146 2q-10 -176 -135 -272q-127 -97 -281 -97q-29 0 -57 4q-31 2 -60 11l-63 -242h-113l80 291q-96 45 -160 176q-65 129 -65 321
q0 261 123 388q123 124 270 145l33 4h28h33l29 -4l63 260h113l-80 -291q84 -18 139 -80q56 -61 80 -131q13 -30 19 -59q4 -29 4 -55zM645 936l-27 4h-28q-127 0 -203 -106q-76 -109 -92 -236q-2 -18 -2 -35q-2 -16 -2 -33q0 -145 35 -227q32 -84 94 -143z" />
    <glyph glyph-name="sterling" unicode="&#xa3;" 
d="M96 887h146v80q0 221 86 323q86 103 190 135q41 15 84 21q41 4 76 4h20q9 0 17 2q176 0 264 -76t108 -168q5 -16 7 -32.5t2 -32.5l-144 2q0 69 -69 123q-72 53 -205 53q-23 0 -47 -4q-27 -6 -53 -17q-72 -26 -132 -102q-59 -76 -59 -217v-94h338v-129h-338v-629h662v-129
h-936v129h129v629h-146v129z" />
    <glyph glyph-name="section" unicode="&#xa7;" 
d="M242 145q4 -4 8 -6l8 -4q68 -33 132.5 -45t109.5 -12q104 0 172 43q65 43 90 96q6 14 10 29q2 14 2 26q0 68 -65 105q-66 35 -152 65q-14 4 -29 11l-28 8q-101 35 -185 88q-84 51 -90 158q0 16 4 34q2 17 9 33q20 60 71 115t127 92q-12 8 -26 16q-15 9 -29 19
q-53 35 -96 86t-43 137q0 96 62.5 166t146.5 92q32 10 73 14q41 5 84 5h6h4q68 0 130 -11q61 -10 90 -24v-127q-29 8 -54 16l-49 12q-20 4 -41.5 6.5t-46.5 2.5h-39q-20 -2 -43 -7q-86 -12 -131 -53q-47 -43 -47 -92q6 -70 72 -109q63 -38 147 -73l21 -8q8 -5 18 -9
q96 -39 178 -92q80 -55 80 -160q0 -69 -37 -112t-82 -74q-24 -16 -49 -29q-24 -14 -41 -26l41 -25q23 -12 47 -28q52 -35 95 -91q43 -55 43 -147q0 -113 -76 -182q-78 -70 -172 -99q-37 -12 -72 -18q-37 -6 -68 -6q-83 0 -157 12t-133 37v145zM580 580q12 14 30 28
q19 13 39 25q2 2 6 4q2 0 4 2q37 23 68 52.5t31 80.5q0 33 -25 55q-24 21 -63 39q-29 15 -64 31q-37 16 -74 37q-83 -37 -122 -82q-39 -47 -39 -96q0 -60 57 -101q55 -41 152 -77v2z" />
    <glyph glyph-name="bullet" horiz-adv-x="516" 
d="M193 629h178v-193h-178v193z" />
    <glyph glyph-name="paragraph" unicode="&#xb6;" horiz-adv-x="1323" 
d="M920 1370h-242v-1677h-146v1001h-4q-166 0 -280 123q-119 125 -119 293q0 16 2 35q2 16 4 35q23 118 121 219q96 98 276 98l533 2v-1806h-145v1677z" />
    <glyph glyph-name="germandbls" unicode="&#xdf;" horiz-adv-x="1241" 
d="M291 0h-129v1016q0 24 2 51q0 25 4 51q18 150 107.5 272.5t304.5 122.5q157 0 280 -73.5t123 -231.5q0 -67 -39 -123q-41 -55 -90 -102q-49 -49 -88 -92q-41 -43 -41 -86q0 -31 25 -55q24 -27 61 -52q31 -18 68 -36l73 -44q84 -49 156 -118q70 -70 70 -178v-5v-4v-4v-4
q-13 -182 -117.5 -260t-237.5 -78q-182 0 -256 96q-75 97 -100 242l145 2q13 -98 64 -155.5t147 -57.5q97 0 154 58q55 57 55 153q0 82 -65 135q-66 54 -148 101q-2 2 -6 4t-6 4q-86 49 -156.5 107.5t-70.5 148.5q0 65 37.5 116.5t84.5 98.5l41 41q19 18 35 39q21 24 33 49
q12 22 12 49v4v2v2v2q0 72 -55 125q-55 51 -188 51q-131 0 -209 -112q-80 -113 -80 -354v-918z" />
    <glyph glyph-name="registered" unicode="&#xae;" horiz-adv-x="1612" 
d="M49 774q10 336 248 539q235 200 526 200h25q10 0 20 -2q275 -16 502 -223t227 -524v-12v-13q-12 -338 -208 -549q-199 -210 -551 -223h-15h-16q-338 0 -547 232q-211 231 -211 573v2zM178 774q0 -293 178 -485q176 -195 467 -195t469 172q176 170 176 473t-188 475
q-190 170 -457 170q-266 0 -454 -184q-191 -186 -191 -428v2zM532 1194h338q158 -2 265 -43q106 -43 106 -201q0 -121 -74 -182q-73 -61 -161 -74h-19q-10 -2 -20 -2l258 -385h-144l-243 387h-176v-387h-130v887zM662 1081v-274h258h12q98 0 139 35t41 108q0 84 -53 107
q-55 22 -139 22z" />
    <glyph glyph-name="copyright" unicode="&#xa9;" horiz-adv-x="1612" 
d="M49 774q10 336 248 539q235 200 526 200h25q10 0 20 -2q275 -16 502 -223t227 -524v-12v-13q-12 -338 -208 -549q-199 -210 -551 -223h-15h-16q-338 0 -547 232q-211 231 -211 573v2zM178 774q0 -293 178 -485q176 -195 467 -195t469 172q176 170 176 473t-188 475
q-190 170 -457 170q-266 0 -454 -184q-191 -186 -191 -428v2zM1096 887q-11 94 -80.5 143t-177.5 49q-123 0 -187 -80q-63 -79 -80 -174q-4 -18 -4 -34q-2 -19 -2 -35q0 -144 88 -248q86 -107 217 -107q97 0 156 64q59 61 70 145l129 2q-8 -145 -99 -221q-90 -76 -196 -96
l-37 -4q-21 -2 -39 -2q-29 0 -57 4q-31 4 -62 14q-112 35 -205 144q-94 106 -94 305q0 184 78 278q76 94 170 129q41 17 82 23q39 6 72 6q157 0 268 -74q108 -76 119 -233z" />
    <glyph glyph-name="trademark" unicode="&#x2122;" horiz-adv-x="1823" 
d="M49 1403v96h676v-96h-274v-791h-129v791h-273zM870 1499h211l242 -629l242 629h209v-887h-129v758l-275 -758h-96l-275 758v-758h-129v887z" />
    <glyph glyph-name="acute" unicode="&#xb4;" horiz-adv-x="678" 
d="M354 1452h195l-275 -307h-112z" />
    <glyph glyph-name="dieresis" unicode="&#xa8;" horiz-adv-x="645" 
d="M16 1468h177v-194h-177v194zM371 1468h178v-194h-178v194z" />
    <glyph glyph-name="AE" unicode="&#x2260;" horiz-adv-x="565" 
 />
    <glyph glyph-name="Oslash" unicode="&#xc6;" horiz-adv-x="2048" 
d="M870 1499h1033v-129h-807l82 -532h692v-129h-660l97 -580h612v-129h-741l-66 403h-709l-241 -403h-162zM1096 532l-144 822l-485 -822h629z" />
    <glyph glyph-name="plusminus" unicode="&#xd8;" horiz-adv-x="1581" 
d="M96 16l178 209q-61 82 -102 201q-43 117 -43 297q0 387 180 590q178 200 482 200h57q29 -2 57 -6q94 -12 187 -49q92 -39 165 -121l162 195l80 -64l-176 -211l35 -55q16 -26 31 -53q45 -90 63 -186q16 -99 16 -240q-12 -399 -211 -586q-200 -186 -466 -186
q-166 0 -269.5 58.5t-177.5 127.5q-2 2 -2 4q-2 0 -4 2l-160 -192zM436 258q60 -74 148 -119q86 -45 207 -45q219 0 362 146q141 145 154 483q0 39 -7 106q-6 66 -26 140q-10 41 -25.5 82t-38.5 75zM1145 1225q-72 94 -164 127q-94 32 -190 32q-193 0 -355 -172
q-162 -174 -162 -489q0 -109 25 -205q25 -98 72 -182z" />
    <glyph glyph-name="yen" unicode="&#x221e;" horiz-adv-x="565" 
 />
    <glyph glyph-name="mu" unicode="&#xb1;" horiz-adv-x="1024" 
 />
    <glyph glyph-name="ordfeminine" unicode="&#x2264;" horiz-adv-x="565" 
 />
    <glyph glyph-name="ordmasculine" unicode="&#x2265;" horiz-adv-x="565" 
 />
    <glyph glyph-name="ae" unicode="&#xa5;" 
d="M0 1436h178l418 -645l403 645h162l-499 -774h403v-130h-403v-112h403v-129h-403v-291h-146v291h-420v129h420v112h-420v130h404z" />
    <glyph glyph-name="oslash" unicode="&#xb5;" horiz-adv-x="1024" 
 />
    <glyph glyph-name="questiondown" unicode="&#x2202;" horiz-adv-x="565" 
 />
    <glyph glyph-name="exclamdown" unicode="&#x3a3;" horiz-adv-x="565" 
 />
    <glyph glyph-name="florin" unicode="&#x220f;" horiz-adv-x="565" 
 />
    <glyph glyph-name="guillemotleft" unicode="&#x3c0;" horiz-adv-x="565" 
 />
    <glyph glyph-name="guillemotright" unicode="&#x222b;" horiz-adv-x="565" 
 />
    <glyph glyph-name="ellipsis" unicode="&#xaa;" horiz-adv-x="612" 
d="M49 774h531v-96h-531v96zM63 1323q13 82 72 137q60 53 203 53h20q9 0 19 -2q76 -8 139 -59q64 -51 64 -180q0 -191 2 -273q2 -84 14 -145v-2l-113 2q-2 4 -4 12q-4 6 -6 13q-4 20 -4 39l-2 16q-25 -35 -57 -55q-35 -21 -72 -29q-21 -4 -39 -6q-20 -2 -39 -2q-27 0 -47 4
q-23 2 -35 6q-49 16 -90 72q-41 53 -43 116q0 31 12 62q13 31 39 57l2 2l2 2q60 58 138 68q75 8 229 8q2 16 4 29v24q0 68 -33 97q-35 28 -116 28h-5h-4q-45 -2 -84 -20q-41 -19 -51 -76zM467 1161q-143 -2 -217 -28q-76 -27 -88 -86v-5q-2 -4 -2 -6v-4v-6q0 -43 33 -72
q32 -28 86 -28q14 0 29.5 2t29.5 6q72 20 102 55q31 35 31 107v30l-4 33v2z" />
    <glyph glyph-name="Agrave" unicode="&#xba;" horiz-adv-x="678" 
d="M16 791h646v-97h-646v97zM33 1210q0 144 88 232q86 88 217 88q145 0 234.5 -88t89.5 -234q0 -182 -95 -268q-96 -88 -229 -88q-131 0 -217 100q-88 99 -88 256v2zM145 1210q0 -22 5 -51q2 -29 12 -59q16 -56 57 -103t119 -47q96 0 154 76q57 74 57 182q0 15 -2 31
q-2 14 -8 31q-19 61 -70 112q-53 52 -131 52q-76 0 -117 -43q-43 -43 -61 -95q-6 -24 -10 -47q-5 -22 -5 -41v2z" />
    <glyph glyph-name="Atilde" unicode="&#x3a9;" horiz-adv-x="565" 
 />
    <glyph glyph-name="Otilde" unicode="&#xe6;" horiz-adv-x="1694" 
d="M113 774q0 154 118 230q119 73 263 75h4h2q133 0 213 -51q78 -51 125 -160q49 109 133 160q82 51 190 51q187 0 311.5 -133t124.5 -391v-10v-10v-9v-12l-710 2q0 -231 74 -319q71 -91 217 -103q108 0 186 82q76 80 88 176l145 2q-10 -155 -122 -260q-115 -104 -246 -123
q-15 -2 -27 -2q-12 -2 -24 -2q-27 0 -58 6q-33 7 -63 17q-80 24 -148.5 81.5t-85.5 135.5q-37 -88 -114 -144q-78 -55 -164 -77q-33 -11 -64.5 -15t-60.5 -4q-154 0 -244 80q-92 78 -110 174q-3 12 -3 25q-2 10 -2 20v6t2 7v6v4q25 229 182.5 283.5t495.5 54.5
q0 121 -32 223q-35 100 -193 100q-121 0 -188 -47q-70 -47 -70 -131zM725 500l-76 4h-78q-143 0 -252.5 -41t-109.5 -174q0 -107 69.5 -158t157.5 -51q10 0 21 2h16q43 4 84 20q39 17 72 41q49 41 76 103q24 59 24 160v45q-2 22 -4 47v2zM887 629h581q-12 155 -90 239
q-80 82 -200 82q-17 0 -33.5 -2t-34.5 -8q-84 -22 -154 -102q-69 -80 -69 -211v2z" />
    <glyph glyph-name="OE" unicode="&#xf8;" 
d="M63 16l146 146q-47 45 -80 144.5t-33 207.5q0 242 133 387q133 146 351 146q141 0 213 -39q69 -39 106 -84q0 -2 2 -2q0 -2 2 -4l129 147l64 -66l-129 -129q49 -61 82 -153q32 -94 32 -203q-10 -283 -131 -397q-123 -115 -266 -137q-35 -9 -68.5 -11t-66.5 -2
q-96 0 -164 35q-68 33 -127 92l-129 -143zM338 193q8 -11 17.5 -19l19.5 -16q35 -31 82 -56q45 -24 92 -24q24 0 51 4q27 2 53 10q101 29 187 125t96 297q0 25 -2 57q-4 31 -12.5 64t-20.5 64.5t-31 56.5zM823 823q-37 45 -92 78t-151 33h-23q-12 -2 -22 -4
q-111 -19 -201 -123q-92 -107 -92 -293q0 -20 4 -43q2 -22 6 -47q8 -45 24 -86q15 -43 31 -66z" />
    <glyph glyph-name="oe" unicode="&#xbf;" horiz-adv-x="1016" 
d="M662 774v-242q0 -63 -60.5 -124.5l-132.5 -128.5q-74 -70 -133 -146q-62 -78 -62 -166q0 -127 103 -184q100 -59 227 -59h19h16q43 2 86 12q43 8 82 22v-129q-41 -14 -86 -22q-45 -10 -92 -13q-11 -2 -21 -2h-24h-9q-161 0 -294 89q-136 88 -136 286q0 119 62 211
q59 90 133 162l133 127q59 57 59 111v196h130zM678 1112v-192h-162v192h162z" />
    <glyph glyph-name="emdash" unicode="&#xa1;" horiz-adv-x="791" 
d="M338 774h129l33 -1145h-193zM307 1112h176v-192h-176v192z" />
    <glyph glyph-name="endash" unicode="&#xac;" horiz-adv-x="565" 
 />
    <glyph glyph-name="quotedblleft" unicode="&#x221a;" horiz-adv-x="565" 
 />
    <glyph glyph-name="quotedblright" unicode="&#x192;" horiz-adv-x="451" 
d="M162 1483h129v-1483h-129v1483z" />
    <glyph glyph-name="quoteleft" unicode="&#x2248;" horiz-adv-x="565" 
 />
    <glyph glyph-name="quoteright" unicode="&#x2206;" horiz-adv-x="565" 
 />
    <glyph glyph-name="ydieresis" unicode="&#xab;" 
d="M209 549l227 403h113l-195 -403l178 -404h-96zM580 549l227 403h113l-195 -403l178 -404h-96z" />
    <glyph glyph-name="Ydieresis" unicode="&#xbb;" 
d="M436 565l-194 402h112l226 -402l-226 -403h-112zM791 565l-195 402h113l227 -402l-227 -403h-113z" />
    <glyph glyph-name="fraction" unicode="&#x2026;" horiz-adv-x="2048" 
d="M242 193h178v-193h-178v193zM936 193h176v-193h-176v193zM1628 193h178v-193h-178v193z" />
    <glyph glyph-name="currency" unicode="&#xc0;" horiz-adv-x="1354" 
d="M596 1499h162l596 -1499h-160l-162 403h-725l-145 -403h-162zM983 532l-305 822l-324 -822h629zM436 1903h193l194 -306h-114z" />
    <glyph glyph-name="guilsinglleft" unicode="&#xc3;" horiz-adv-x="1354" 
d="M612 1499h162l596 -1499h-160l-161 403h-727l-144 -403h-162zM999 532l-305 822l-323 -822h628zM420 1661q14 61 49 100q33 39 70 58q20 10 38.5 14t34.5 4q37 0 60 -6q22 -8 43 -19h4l4 -4q18 -8 36.5 -14t47.5 -6q35 0 59 20q25 21 37 45l96 2q-18 -73 -53 -112
q-35 -41 -72 -57q-12 -7 -24 -9q-14 -2 -27 -2q-37 0 -63 8l-49 17q-25 10 -52 18q-26 6 -63 6q-35 0 -59.5 -20.5t-36.5 -44.5z" />
    <glyph glyph-name="guilsinglright" unicode="&#xd5;" horiz-adv-x="1581" 
d="M145 758q0 325 162 549q160 223 500 223q303 0 471 -209q166 -211 197 -465q4 -29 6 -57q2 -31 2 -60v-22v-23q-13 -268 -170.5 -489t-505.5 -221q-365 0 -506 223q-143 221 -156 549v2zM291 758q0 -269 125 -457q125 -190 391 -190t391 176q125 174 125 452
q0 267 -131 464.5t-385 197.5q-215 0 -346 -158q-133 -160 -162 -350q-4 -25 -6 -49q-2 -27 -2 -51v-17v-20v2zM516 1661q16 61 51 100q33 39 70 58q18 10 36.5 14t35.5 4q36 0 61 -6q23 -8 43 -19q2 -2 6 -2q2 -2 4 -2q17 -8 35 -14q19 -6 45 -6q37 0 62 20q22 21 34 45
l97 2q-17 -73 -52 -112q-34 -41 -71 -57q-15 -5 -27 -7q-14 -4 -26 -4q-37 0 -62 8l-51 17q-25 10 -49 18q-27 6 -64 6t-61.5 -20.5t-36.5 -44.5z" />
    <glyph glyph-name="fi" unicode="&#x152;" horiz-adv-x="2048" 
d="M129 758q0 325 156 540q153 215 456 215q90 0 152 -14q61 -16 117 -45q28 -14 57 -31.5l61 -38.5v99h791v-129h-645v-531h612v-129h-612v-565h678v-129h-824v129l-2 -4l-4 -4l-10 -10q-6 -7 -12 -13q-49 -53 -121 -92q-74 -39 -254 -39q-303 0 -442 232
q-142 229 -154 557v2zM274 758q0 -269 125 -465q125 -199 342 -199q195 0 291 107q96 104 96 297v567q0 143 -100 231t-270 88q-221 0 -342 -161q-121 -164 -140 -359q-2 -16 -2 -33q-2 -18 -2 -34v-11q0 -6 2 -10v-8v-12v2z" />
    <glyph glyph-name="fl" unicode="&#x153;" horiz-adv-x="1806" 
d="M1597 354h144q-47 -207 -164 -288.5t-287 -81.5q-145 0 -229 65q-86 66 -109 174q-24 -108 -127 -174q-102 -65 -260 -65q-192 0 -323 139q-133 137 -146 391q0 219 119 385q117 164 334 164q162 0 242 -51q77 -51 118 -111q13 -20 23 -41l20 -39q35 97 119 170
q82 72 252 72q178 0 299 -143q121 -146 123 -353v-16q0 -10 -2 -19v-16q-2 -10 -2 -18l-709 2q0 -33 2 -66t8 -67q19 -103 76 -187q56 -86 172 -86q117 0 180 47q62 45 91 101q16 30 24 61q8 29 12 49v2zM242 516q0 -35 6 -72q4 -38 12 -75q29 -103 100 -189q72 -86 205 -86
h4h2q119 2 217 99q99 94 99 321q0 207 -84 321.5t-254 114.5q-121 0 -213 -133q-94 -133 -94 -303v2zM1597 612v13v12v8q0 123 -63 199q-68 76 -150 98q-14 4 -30.5 6t-30.5 2q-29 0 -66 -6q-36 -6 -77 -31q-47 -30 -93 -100q-45 -70 -71 -203z" />
    <glyph glyph-name="daggerdbl" horiz-adv-x="1016" 
d="M0 629h1032v-129h-1032v129z" />
    <glyph glyph-name="periodcentered" unicode="&#x2014;" horiz-adv-x="2048" 
d="M0 596h2048v-129h-2048v129z" />
    <glyph glyph-name="quotedblbase" unicode="&#x201c;" 
d="M242 1065l145 418h113l-80 -418h-178zM629 1065l145 418h113l-80 -418h-178z" />
    <glyph glyph-name="perthousand" unicode="&#x201d;" 
d="M354 1483h178l-161 -434h-113zM629 1049l96 434h178l-162 -434h-112z" />
    <glyph glyph-name="Acircumflex" unicode="&#x2018;" horiz-adv-x="565" 
d="M291 1499h112l-96 -434h-178z" />
    <glyph glyph-name="Ecircumflex" unicode="&#x2019;" horiz-adv-x="565" 
d="M258 1483h178l-162 -434h-112z" />
    <glyph glyph-name="Aacute" unicode="&#xf7;" horiz-adv-x="565" 
 />
    <glyph glyph-name="Edieresis" unicode="&#x25ca;" horiz-adv-x="565" 
 />
    <glyph glyph-name="Egrave" unicode="&#xff;" horiz-adv-x="1016" 
d="M0 1016h162l354 -823l338 823h145l-579 -1403h-146l162 403zM258 1468h178v-194h-178v194zM612 1468h179v-194h-179v194z" />
    <glyph glyph-name="Iacute" unicode="&#x178;" horiz-adv-x="1024" 
 />
    <glyph glyph-name="Icircumflex" unicode="&#x2215;" horiz-adv-x="1024" 
 />
    <glyph glyph-name="Idieresis" unicode="&#xa4;" 
d="M193 1128l81 -79q68 47 152 73q84 27 172 27h12h13q75 -4 149 -29q72 -24 131 -73l80 81l113 -112l-80 -80q31 -47 51 -94q20 -49 33 -97q6 -28 10 -57q2 -29 2 -57q0 -88 -29.5 -170t-83.5 -142l82 -77l-114 -113l-80 80q-56 -51 -121 -80q-68 -29 -137 -35h-21
q-12 -2 -24 -2q-86 0 -166 31q-80 29 -144 84l-81 -78l-113 113l82 80q-51 63 -76 141q-27 78 -27 160q0 86 27 168q27 79 76 143l-82 82zM952 629q0 143 -106 248q-109 104 -266 104q-156 0 -263 -111q-108 -110 -108 -243q0 -156 108 -262q107 -109 263 -109
q170 0 266 102q94 101 106 269v2z" />
    <glyph glyph-name="Igrave" unicode="&#x2039;" horiz-adv-x="565" 
d="M113 549l225 403h113l-193 -403l178 -404h-98z" />
    <glyph glyph-name="Oacute" unicode="&#x203a;" horiz-adv-x="565" 
d="M307 549l-194 403h112l226 -403l-226 -404h-112z" />
    <glyph glyph-name="Ocircumflex" unicode="&#xf001;" horiz-adv-x="1081" 
d="M242 1032v225q0 138 69 193q70 53 152 55h8h4q37 0 74 -6q35 -8 63 -18v-111q-22 8 -45.5 13.5t-46.5 5.5q-59 0 -104 -41q-45 -43 -45 -140v-176h241v-112h-241v-920h-129v920h-209v112h209zM823 1032h129v-1032h-129v1032zM807 1483h160v-160h-160v160z" />
    <glyph glyph-name="Ograve" unicode="&#xf002;" horiz-adv-x="1065" 
d="M242 1032v225q0 138 69 193q70 53 152 55h8h4q37 0 74 -6q35 -8 63 -18v-111q-22 8 -45.5 13.5t-46.5 5.5q-59 0 -104 -41q-45 -43 -45 -140v-176h241v-112h-241v-920h-129v920h-209v112h209zM823 1483h129v-1483h-129v1483z" />
    <glyph glyph-name="Uacute" unicode="&#x2021;" 
d="M162 1145h354v354h129v-354h354v-129h-354v-516h354v-129h-354v-371h-129v371h-354v129h354v516h-354v129z" />
    <glyph glyph-name="Ucircumflex" unicode="&#x2219;" horiz-adv-x="1016" 
d="M145 758q0 168 121 276q121 109 266 109q146 0 259 -107q112 -106 112 -264q0 -156 -100 -270q-101 -117 -271 -117q-167 0 -270 115q-104 112 -117 256v2z" />
    <glyph glyph-name="Ugrave" unicode="&#x201a;" horiz-adv-x="565" 
 />
    <glyph glyph-name="dotlessi" unicode="&#x201e;" 
d="M354 193h178l-161 -435h-113zM629 -242l96 435h178l-162 -435h-112z" />
    <glyph glyph-name="circumflex" unicode="&#x2030;" horiz-adv-x="2048" 
d="M694 307q0 144 82 240q80 96 223 96q146 0 220 -102q71 -103 71 -236t-73 -227q-76 -94 -234 -94q-156 0 -221 88q-68 88 -68 233v2zM1161 307q0 94 -39 168q-39 72 -123 72t-129 -66q-47 -67 -47 -176q0 -108 39 -168q37 -59 121 -59t131 53t47 174v2zM1403 307
q0 156 88 246q86 90 219 90t219 -96t86 -242q0 -145 -80 -233t-225 -88t-219 88q-76 88 -88 233v2zM1886 307q0 119 -45 172q-47 51 -131 51t-131 -63q-47 -66 -47 -162t47 -162q47 -65 131 -65t131 53q45 53 45 174v2zM1065 1468h129l-872 -1468h-129zM63 1128
q11 166 81.5 240t152.5 90q18 4 36.5 6t37.5 2q20 0 43 -2q22 -4 45 -12q82 -27 151 -104q68 -80 68 -222q0 -180 -92 -258q-94 -80 -215 -80t-213 80q-95 78 -95 258v2zM549 1128q0 119 -47 181q-47 59 -131 59q-97 0 -138 -72q-40 -73 -40 -170v-18q0 -10 2 -21
q4 -75 43 -139q36 -63 133 -63q96 0 135 63q37 64 41 139q2 11 2 21v18v2z" />
    <glyph glyph-name="tilde" unicode="&#xc2;" horiz-adv-x="1354" 
d="M612 1499h162l596 -1499h-160l-161 403h-727l-144 -403h-162zM999 532l-305 822l-323 -822h628zM629 1903h162l208 -306h-112l-178 209l-177 -209h-112z" />
    <glyph glyph-name="macron" unicode="&#xca;" horiz-adv-x="1241" 
d="M209 1483h887v-129h-742v-531h711v-129h-711v-565h774v-129h-919v1483zM580 1903h161l211 -306h-114l-176 209l-179 -209h-112z" />
    <glyph glyph-name="breve" unicode="&#xc1;" horiz-adv-x="1354" 
d="M596 1499h162l596 -1499h-160l-162 403h-725l-145 -403h-162zM983 532l-305 822l-324 -822h629zM662 1919h192l-274 -307h-113z" />
    <glyph glyph-name="dotaccent" unicode="&#xcb;" horiz-adv-x="1241" 
d="M209 1483h887v-129h-742v-531h711v-129h-711v-565h774v-129h-919v1483zM403 1839h177v-194h-177v194zM758 1839h178v-194h-178v194z" />
    <glyph glyph-name="ring" unicode="&#xc8;" horiz-adv-x="1241" 
d="M209 1483h887v-129h-742v-531h711v-129h-711v-565h774v-129h-919v1483zM354 1903h195l192 -306h-112z" />
    <glyph glyph-name="cedilla" unicode="&#xcd;" horiz-adv-x="565" 
d="M209 1483h145v-1483h-145v1483zM354 1903h195l-275 -306h-112z" />
    <glyph glyph-name="hungarumlaut" unicode="&#xce;" horiz-adv-x="565" 
d="M209 1483h145v-1483h-145v1483zM193 1903h161l211 -306h-114l-177 209l-178 -209h-112z" />
    <glyph glyph-name="ogonek" unicode="&#xcf;" horiz-adv-x="565" 
d="M209 1483h145v-1483h-145v1483zM16 1855h177v-194h-177v194zM371 1855h178v-194h-178v194z" />
    <glyph glyph-name="caron" unicode="&#xcc;" horiz-adv-x="565" 
d="M209 1483h145v-1483h-145v1483zM16 1903h193l194 -306h-112z" />
    <glyph glyph-name="Lslash" unicode="&#xd3;" horiz-adv-x="1581" 
d="M145 758q0 325 162 549q160 223 500 223q303 0 471 -209q166 -211 197 -465q4 -29 6 -57q2 -31 2 -60v-22v-23q-13 -268 -170.5 -489t-505.5 -221q-365 0 -506 223q-143 221 -156 549v2zM291 758q0 -269 125 -457q125 -190 391 -190t391 176q125 174 125 452
q0 267 -131 464.5t-385 197.5q-215 0 -346 -158q-133 -160 -162 -350q-4 -25 -6 -49q-2 -27 -2 -51v-17v-20v2zM823 1919h193l-275 -307h-112z" />
    <glyph glyph-name="lslash" unicode="&#xd4;" horiz-adv-x="1581" 
d="M145 758q0 325 162 549q160 223 500 223q303 0 471 -209q166 -211 197 -465q4 -29 6 -57q2 -31 2 -60v-22v-23q-13 -268 -170.5 -489t-505.5 -221q-365 0 -506 223q-143 221 -156 549v2zM291 758q0 -269 125 -457q125 -190 391 -190t391 176q125 174 125 452
q0 267 -131 464.5t-385 197.5q-215 0 -346 -158q-133 -160 -162 -350q-4 -25 -6 -49q-2 -27 -2 -51v-17v-20v2zM725 1919h162l209 -307h-113l-176 211l-178 -211h-113z" />
    <glyph glyph-name="Scaron" unicode="&#xf000;" horiz-adv-x="565" 
 />
    <glyph glyph-name="scaron" unicode="&#xd2;" horiz-adv-x="565" 
 />
    <glyph glyph-name="Eth" unicode="&#xda;" horiz-adv-x="1468" 
d="M193 1483h145v-934q0 -232 121 -342q119 -113 299 -113q182 0 284 119q103 117 103 334v936h145v-934q0 -244 -114 -412q-115 -170 -418 -170t-434 164q-131 162 -131 416v936zM807 1903h192l-274 -306h-113z" />
    <glyph glyph-name="eth" unicode="&#xdb;" horiz-adv-x="1468" 
d="M193 1483h145v-934q0 -232 121 -342q119 -113 299 -113q182 0 284 119q103 117 103 334v936h145v-934q0 -244 -114 -412q-115 -170 -418 -170t-434 164q-131 162 -131 416v936zM662 1903h161l209 -306h-112l-179 209l-176 -209h-114z" />
    <glyph glyph-name="Thorn" unicode="&#xd9;" horiz-adv-x="1468" 
d="M193 1483h145v-934q0 -232 121 -342q119 -113 299 -113q182 0 284 119q103 117 103 334v936h145v-934q0 -244 -114 -412q-115 -170 -418 -170t-434 164q-131 162 -131 416v936zM467 1919h195l192 -307h-113z" />
    <glyph glyph-name="thorn" unicode="&#x131;" horiz-adv-x="420" 
d="M162 1032h129v-1032h-129v1032z" />
    <glyph glyph-name="onehalf" unicode="&#x2dc;" horiz-adv-x="678" 
d="M209 1452h162l209 -307h-113l-176 209l-178 -209h-113z" />
    <glyph glyph-name="arrowright" unicode="&#x2c6;" horiz-adv-x="662" 
d="M0 1210q16 62 51 101q33 39 70 55q18 10 36.5 14t35.5 4q36 0 61 -6l43 -16q2 -2 6 -2l4 -4l35 -13q18 -6 45 -6q37 0 62 21q22 18 34 43l97 2q-17 -74 -52 -113q-34 -41 -71 -57q-15 -4 -27 -6q-14 -4 -27 -4q-36 0 -61 8q-27 8 -51 16l-49 19q-27 6 -64 6
q-35 0 -57 -19q-25 -18 -39 -39v-2q-2 -2 -2 -4z" />
    <glyph glyph-name="house" unicode="&#x2c9;" horiz-adv-x="1024" 
 />
    <glyph glyph-name="endash.0" unicode="&#x2d8;" horiz-adv-x="662" 
d="M33 1483h47q10 -47 53 -72q43 -27 94 -37q17 -4 33 -4q16 -2 31 -2q14 0 33 2l32 4q50 10 93 37q43 25 51 70l49 2q0 -121 -74 -166q-76 -45 -184 -45q-96 0 -176 45q-82 45 -82 164v2z" />
    <glyph glyph-name="sfthyphen" unicode="&#x2d9;" horiz-adv-x="1024" 
 />
    <glyph glyph-name="filledbox" unicode="&#x2da;" horiz-adv-x="565" 
d="M113 1339q0 70 47 123q47 51 131 51t139 -45q53 -47 53 -131q0 -96 -53 -145q-55 -49 -139 -49t-131 55q-47 53 -47 139v2zM403 1339q0 45 -32.5 70t-79.5 25t-72 -29q-24 -29 -26 -62v-2v-4q0 -8 2 -14v-16q6 -31 26 -58q21 -26 70 -26q59 0 86 32q26 33 26 82v2z" />
    <glyph glyph-name="bullet.0" unicode="&#xb8;" horiz-adv-x="532" 
d="M307 16l-33 -129l29 4q12 3 25 3q71 0 112 -37q41 -39 41 -88v-15l-4 -16q0 -6 -2 -12q-4 -9 -8 -17q-21 -41 -74 -61q-53 -23 -123 -23q-24 0 -49 2q-24 2 -49 8q-33 7 -63.5 17t-59.5 26l14 64q58 -29 109 -41t90 -12q29 0 49 6q19 4 27 14q10 10 16 23q4 12 4 24v4v2
q-2 25 -28 45q-27 21 -84 21q-15 0 -31 -2l-37 -4l64 194h65z" />
    <glyph glyph-name="nonbreakingspace" unicode="&#xa0;" horiz-adv-x="565" 
 />
    </font>
</defs>
</svg>
